<svg xmlns="http://www.w3.org/2000/svg" width="780" height="440" viewBox="0 0 780 440" fill="none"><rect width="780" height="440" fill="#08C4B2"></rect><path d="M445.256 178H333.744C306.823 178 285 199.823 285 226.744V338.256C285 365.177 306.823 387 333.744 387H445.256C472.177 387 494 365.177 494 338.256V226.744C494 199.823 472.177 178 445.256 178Z" fill="#040404"></path><path d="M391.789 230H409.141C409.257 231.018 409.335 232.023 409.491 233.028C410.087 236.957 411.371 240.624 413.498 243.979C415.119 246.524 417.428 248.077 420.294 248.86C423.082 249.617 425.948 249.578 428.801 249.578C430.85 249.578 432.899 249.578 435 249.578V267.094C433.898 267.094 432.821 267.107 431.758 267.094C428.944 267.042 426.129 267.055 423.328 266.898C419.917 266.702 416.649 265.775 413.524 264.392C412.071 263.752 410.684 262.995 409.167 262.238V262.93C409.167 276.034 409.167 289.152 409.167 302.256C409.167 307.49 407.986 312.449 405.613 317.083C402.073 323.987 396.769 329.051 389.727 332.21C384.474 334.572 378.95 335.421 373.243 334.807C366.448 334.076 360.417 331.479 355.23 326.95C350.769 323.061 347.605 318.284 345.711 312.658C344.116 307.92 343.636 303.065 344.272 298.105C345.296 290.013 348.836 283.226 354.841 277.77C359.043 273.933 363.958 271.427 369.508 270.161C372.517 269.469 375.565 269.326 378.625 269.352C379.806 269.352 380.999 269.352 382.205 269.352V286.867C380.973 286.867 379.754 286.881 378.535 286.867C376.641 286.841 374.761 286.867 372.893 287.324C366.616 288.891 361.948 294.333 361.468 300.82C361.014 307.007 363.478 311.797 368.601 315.19C370.585 316.509 372.828 317.213 375.215 317.422C380 317.814 384.098 316.274 387.457 312.88C390.582 309.735 391.879 305.832 391.815 301.407C391.776 298.301 391.815 295.208 391.815 292.101C391.815 289.06 391.815 286.019 391.815 282.978C391.815 279.937 391.815 276.896 391.815 273.855C391.815 270.814 391.815 267.772 391.815 264.731C391.815 261.69 391.815 258.649 391.815 255.608C391.815 252.567 391.815 249.526 391.815 246.485C391.815 243.444 391.815 240.402 391.815 237.361C391.815 235.169 391.814 232.976 391.802 230.783C391.802 230.548 391.802 230.3 391.802 230.013L391.789 230Z" fill="white"></path><path d="M241.75 71C241.75 61.4731 249.473 53.75 259 53.75H520C529.527 53.75 537.25 61.4731 537.25 71V121.875C537.25 131.401 529.527 139.125 520 139.125H409.802C408.522 139.125 407.33 139.778 406.641 140.857L389.898 167.096C389.009 168.489 386.971 168.48 386.094 167.079L369.694 140.885C369.009 139.79 367.808 139.125 366.516 139.125H259C249.473 139.125 241.75 131.401 241.75 121.875V71Z" fill="#59CB59" stroke="#040404" stroke-width="1.5"></path><path d="M289.734 116.5L308.451 97.8687C313.286 93.1345 313.13 85.4987 308.295 80.9173C303.46 76.3358 295.817 76.3358 290.982 81.07L289.422 82.5971L287.862 81.07C283.027 76.4885 275.384 76.4885 270.549 81.07C265.714 85.8041 265.87 93.4399 270.705 98.0214L289.734 116.5Z" fill="white" stroke="#040404" stroke-width="1.5" stroke-miterlimit="10"></path><path d="M442.927 105.98L442.928 105.983L445.202 114.151L437.257 112.133C437.256 112.133 437.255 112.133 437.254 112.132C436.609 111.964 435.933 112.069 435.349 112.398C431.33 114.656 426.577 115.321 421.97 114.251C419.119 113.587 416.114 111.768 413.617 109.362C411.119 106.956 409.198 104.03 408.444 101.223L408.444 101.223C406.874 95.3797 407.998 89.3531 411.514 84.6801C415.019 80.024 420.343 77.3182 426.133 77.2513C427.827 77.2317 429.548 77.4421 431.253 77.8767C437.632 79.5093 442.636 84.5396 444.306 91.0123C445.475 95.5461 445.055 100.086 443.101 104.157L443.1 104.159C442.829 104.729 442.761 105.375 442.927 105.98ZM443.65 105.782C443.535 105.359 443.579 104.897 443.777 104.481L443.65 105.782Z" fill="white" stroke="#040404" stroke-width="1.5"></path><path d="M336.35 106.5H332.09V91.98L328.76 95.37L326.33 92.82L332.63 86.49H336.35V106.5ZM354.804 106.5H339.744V103.17C347.934 97.11 350.334 95.04 350.334 92.58C350.334 90.84 348.744 89.97 347.094 89.97C344.814 89.97 343.074 90.87 341.724 92.28L339.294 89.46C341.244 87.21 344.214 86.19 347.004 86.19C351.264 86.19 354.654 88.59 354.654 92.58C354.654 96 351.834 98.97 346.644 102.75H354.804V106.5ZM365.622 106.86C359.892 106.86 357.342 101.67 357.342 96.51C357.342 91.35 359.892 86.19 365.622 86.19C371.322 86.19 373.902 91.35 373.902 96.51C373.902 101.67 371.322 106.86 365.622 106.86ZM365.622 103.08C368.472 103.08 369.552 100.2 369.552 96.51C369.552 92.82 368.472 89.97 365.622 89.97C362.742 89.97 361.662 92.82 361.662 96.51C361.662 100.2 362.742 103.08 365.622 103.08ZM384.226 106.86C378.496 106.86 375.946 101.67 375.946 96.51C375.946 91.35 378.496 86.19 384.226 86.19C389.926 86.19 392.506 91.35 392.506 96.51C392.506 101.67 389.926 106.86 384.226 106.86ZM384.226 103.08C387.076 103.08 388.156 100.2 388.156 96.51C388.156 92.82 387.076 89.97 384.226 89.97C381.346 89.97 380.266 92.82 380.266 96.51C380.266 100.2 381.346 103.08 384.226 103.08Z" fill="white"></path><path d="M468.31 105.5H463.63L470.8 89.24H460.72V85.49H475.75V88.46L468.31 105.5ZM490.928 105.5H486.668V101.36H477.098V98L485.048 85.49H490.928V97.61H493.508V101.36H490.928V105.5ZM486.668 97.61V89.27L481.268 97.61H486.668ZM503.428 105.86C499.948 105.86 497.428 104.72 495.718 102.86L498.088 99.89C499.438 101.3 501.298 102.08 503.398 102.08C505.768 102.08 507.118 100.73 507.118 99.11C507.118 97.34 505.798 96.14 503.518 96.14C501.868 96.14 500.518 96.62 499.318 97.76L496.348 96.98V85.49H510.088V89.24H500.608V94.13C501.568 93.17 503.188 92.45 505.018 92.45C508.408 92.45 511.438 94.88 511.438 98.93C511.438 103.19 508.258 105.86 503.428 105.86Z" fill="white"></path><path d="M235.272 220.5H129.069C124.06 220.5 120 224.56 120 229.569V349.955C120 354.963 124.06 359.023 129.069 359.023H235.272C240.28 359.023 244.34 354.963 244.34 349.955V229.569C244.34 224.56 240.28 220.5 235.272 220.5Z" fill="#08C4B2" stroke="#040404" stroke-width="1.5" stroke-linecap="round" stroke-linejoin="round"></path><path d="M227.509 233.738H136.824C134.391 233.738 132.418 235.711 132.418 238.144V267.157C132.418 269.591 134.391 271.563 136.824 271.563H227.509C229.942 271.563 231.915 269.591 231.915 267.157V238.144C231.915 235.711 229.942 233.738 227.509 233.738Z" fill="white" stroke="#040404" stroke-width="1.5" stroke-linecap="round" stroke-linejoin="round"></path><path d="M156.682 287.059H134.652V309.088H156.682V287.059Z" fill="#CCF1EA" stroke="#040404" stroke-width="1.5" stroke-miterlimit="10"></path><path d="M156.682 321.531H134.652V343.561H156.682V321.531Z" fill="#CCF1EA" stroke="#040404" stroke-width="1.5" stroke-miterlimit="10"></path><path d="M192.467 287.059H170.438V309.088H192.467V287.059Z" fill="#CCF1EA" stroke="#040404" stroke-width="1.5" stroke-miterlimit="10"></path><path d="M228.26 287.059H206.23V342.733H228.26V287.059Z" fill="#98E58E" stroke="#040404" stroke-width="1.5" stroke-linecap="round" stroke-linejoin="round"></path><path d="M192.467 321.531H170.438V343.561H192.467V321.531Z" fill="#CCF1EA" stroke="#040404" stroke-width="1.5" stroke-miterlimit="10"></path><path d="M650.272 220.5H544.069C539.06 220.5 535 224.56 535 229.569V349.955C535 354.963 539.06 359.023 544.069 359.023H650.272C655.28 359.023 659.34 354.963 659.34 349.955V229.569C659.34 224.56 655.28 220.5 650.272 220.5Z" fill="#08C4B2" stroke="#040404" stroke-width="1.5" stroke-linecap="round" stroke-linejoin="round"></path><path d="M609.239 278.643H585.915V329.806H609.239V278.643Z" fill="#98E58E" stroke="#040404" stroke-width="1.5" stroke-miterlimit="10" stroke-linecap="round" stroke-linejoin="round"></path><path d="M641.968 252.5H618.643V329.809H641.968V252.5Z" fill="#59CB59" stroke="#040404" stroke-width="1.5" stroke-miterlimit="10" stroke-linecap="round" stroke-linejoin="round"></path><path d="M576.324 293.134H553V329.813H576.324V293.134Z" fill="white" stroke="#040404" stroke-width="1.5" stroke-miterlimit="10" stroke-linecap="round" stroke-linejoin="round"></path><path d="M562.03 180.936C561.673 171.269 563.977 146.291 596.48 144.151C597.291 144.086 597.972 143.437 597.972 142.594L597.94 131.564C597.94 130.234 599.464 129.521 600.47 130.364L629.373 153.817C630.119 154.401 630.151 155.537 629.438 156.185L602.611 181.131C601.638 182.039 600.016 181.358 599.984 180.028L599.789 172.21C599.756 171.432 599.205 170.783 598.426 170.685C593.625 170.102 576.725 169.161 564.658 181.942C563.749 182.947 562.063 182.298 562.03 180.936Z" fill="#CCF1EA" stroke="#040404" stroke-width="1.5" stroke-miterlimit="10"></path><path d="M194.254 148.625C194.509 148.625 194.695 148.625 194.899 148.625C200.582 148.625 206.264 148.625 211.947 148.625C213.236 148.625 214.356 149.049 215.255 149.965C216.9 151.644 216.764 154.308 214.949 155.817C214.525 156.174 214.067 156.496 213.609 156.835C213.473 156.937 213.338 157.056 213.134 157.208C213.779 157.581 214.373 157.904 214.949 158.243C215.984 158.854 216.646 159.753 216.9 160.923C217.341 162.874 216.289 164.842 214.39 165.588C213.932 165.775 213.44 165.893 212.965 166.046C212.761 166.114 212.575 166.182 212.303 166.267C212.676 166.775 213.016 167.216 213.355 167.674C214.661 169.405 214.542 171.593 213.083 173.103C212.405 173.798 211.557 174.171 210.59 174.307C210.081 174.375 209.572 174.477 209.012 174.578C209.233 174.986 209.419 175.342 209.589 175.715C209.793 176.156 210.047 176.58 210.166 177.038C210.912 179.633 208.978 182.212 206.281 182.212C198.597 182.212 190.913 182.212 183.228 182.212C181.346 182.212 179.649 181.567 178.123 180.448C177.614 180.074 177.071 179.752 176.511 179.43C176.307 179.311 176.223 179.209 176.223 178.972C176.223 178.616 176.223 178.242 176.223 177.886C176.223 171.288 176.223 164.706 176.223 158.107C176.223 157.734 176.307 157.48 176.613 157.259C176.85 157.09 177.037 156.869 177.274 156.716C178.547 155.885 179.191 154.579 179.887 153.29C182.278 148.812 184.704 144.367 187.113 139.889C187.758 138.685 188.012 137.395 187.91 136.021C187.724 133.748 187.571 131.492 187.384 129.219C187.35 128.761 187.333 128.303 187.266 127.862C187.232 127.574 187.333 127.438 187.571 127.336C188.877 126.777 190.115 126.929 191.286 127.693C192.304 128.354 193.067 129.253 193.678 130.271C195.069 132.578 195.832 135.088 195.73 137.786C195.679 138.99 195.459 140.194 195.272 141.382C194.933 143.621 194.577 145.843 194.237 148.065C194.22 148.218 194.22 148.371 194.203 148.591L194.254 148.625Z" fill="white" stroke="#040404" stroke-width="1.5" stroke-miterlimit="10"></path><path d="M174.184 152.784H159.426C158.086 152.784 157 153.87 157 155.21V182.673C157 184.013 158.086 185.099 159.426 185.099H174.184C175.523 185.099 176.609 184.013 176.609 182.673V155.21C176.609 153.87 175.523 152.784 174.184 152.784Z" fill="#98E58E" stroke="#040404" stroke-width="1.5" stroke-miterlimit="10"></path><path d="M131.636 95.3182V86H106.477L125.114 106.5L106.477 127H131.636V118.614" stroke="#040404" stroke-width="1.5" stroke-linecap="round" stroke-linejoin="round"></path><path d="M97.1591 95.3182V86H72L90.6364 106.5L72 127H97.1591V118.614" stroke="#040404" stroke-width="1.5" stroke-linecap="round" stroke-linejoin="round"></path><path d="M730.812 85H686.861L670.162 126L658.207 102.083C657.646 103.222 656.02 105.956 654 107.778" stroke="#040404" stroke-width="1.5" stroke-linecap="round" stroke-linejoin="round"></path><path d="M716.948 101.497L718.123 96.1144H719.979L713.359 126H711.503L712.554 121.236C710.141 124.453 706.367 126.743 701.912 126.743C695.044 126.743 690.156 122.164 690.156 114.491C690.156 104.158 696.591 95.3719 705.81 95.3719C711.008 95.3719 714.906 97.9706 716.948 101.497ZM692.259 114.244C692.259 120.926 696.096 125.072 702.036 125.072C706.676 125.072 710.946 122.04 713.173 118.637L716.576 103.106C715.029 99.8269 711.131 97.0425 705.81 97.0425C697.581 97.0425 692.259 105.643 692.259 114.244Z" fill="black"></path></svg>