<svg xmlns="http://www.w3.org/2000/svg" xml:space="preserve" viewBox="0 0 780 440"><linearGradient id="a" x1="390" x2="390" y1="505.5" y2="-790" gradientTransform="matrix(1 0 0 -1 0 442)" gradientUnits="userSpaceOnUse"><stop offset="0" style="stop-color:#7dead5"></stop><stop offset="1" style="stop-color:#fff"></stop></linearGradient><path fill="url(#a)" d="M0 0h780v440H0z"></path><path fill="#FFF" stroke="#040404" stroke-miterlimit="10" stroke-width="1.5" d="M680 73H402v115h278z"></path><path fill="none" stroke="#040404" stroke-width="1.5" d="M609.6 125.3h48m-48-30.8h48m-48 44.3h48m-48 13.4h48m-48 13.5h48"></path><path fill="#08C4B2" stroke="#040404" stroke-miterlimit="10" stroke-width="1.5" d="M438.7 130.1c.2-4.6 2-9.1 5.5-12.6.1-.1.3-.3.5-.4 3.6-3.4 8.3-5.1 13-5.1V92.4c-9.7 0-19.3 3.6-26.8 10.8l-.4.4c-7.3 7.3-11 16.8-11.2 26.4h19.4z"></path><path fill="#FFF" stroke="#040404" stroke-linecap="round" stroke-linejoin="round" stroke-width="1.5" d="m470.5 117.2 13.8-13.8c-7.4-7.2-17.1-10.9-26.7-10.9V112c4.7 0 9.3 1.8 12.9 5.2"></path><path fill="#7DEAD5" stroke="#040404" stroke-linecap="round" stroke-linejoin="round" stroke-width="1.5" d="M457.6 169.2c9.8 0 19.6-3.8 27.1-11.2l.4-.4-13.8-13.8c-.1.1-.3.3-.4.5-3.7 3.7-8.5 5.5-13.2 5.5-4.9 0-9.7-1.8-13.4-5.5-.1-.1-.2-.2-.3-.4-3.6-3.8-5.4-8.8-5.2-13.7h-19.6c-.2 9.9 3.4 19.9 10.9 27.6l.3.3c7.5 7.4 17.4 11.2 27.2 11.1"></path><path fill="#CCF1EA" stroke="#040404" stroke-miterlimit="10" stroke-width="1.5" d="M495.9 130.1c-.2-9.6-3.9-19.1-11.2-26.4l-.3-.3-13.8 13.8c.1.1.2.2.4.3 3.5 3.5 5.3 8 5.5 12.6.2 4.9-1.5 9.8-5.1 13.7l13.8 13.8c7.3-7.7 10.9-17.6 10.7-27.5z"></path><path fill="#931847" stroke="#040404" stroke-miterlimit="10" stroke-width="1.5" d="M528.9 129.3c.2-4.7 2.1-9.5 5.7-13l.4-.4c3.8-3.6 8.7-5.3 13.5-5.3V90.2c-10.1 0-20.1 3.7-27.8 11.2l-.4.4c-7.6 7.6-11.5 17.5-11.7 27.5z"></path><path fill="#CE3665" stroke="#040404" stroke-miterlimit="10" stroke-width="1.5" d="M548.5 170c10.2 0 20.4-3.9 28.1-11.7l.4-.4-14.4-14.4-.4.4c-3.8 3.8-8.8 5.7-13.8 5.8-5 0-10.1-1.9-14-5.8l-.4-.4c-3.8-4-5.6-9.2-5.4-14.3h-20.3c-.2 10.3 3.6 20.7 11.4 28.6l.4.4c7.9 7.9 18.2 11.8 28.4 11.8z"></path><path fill="#FFF" stroke="#040404" stroke-miterlimit="10" stroke-width="1.5" d="M588.3 129.3c-.2-10-4.1-19.8-11.7-27.5l-.4-.4s-1.1-1.1-1.6-1.5c-7.5-6.6-16.8-9.8-26.2-9.8v20.3c4.2 0 8.4 1.4 11.9 4.1.1 0 .1.1.1.1.2.1.4.3.6.5.1.1.1.1.2.1.2.1.4.4.6.5l.4.4c3.6 3.6 5.5 8.3 5.7 13 .2 5.1-1.5 10.2-5.2 14.2l14.4 14.4c7.6-7.8 11.4-18.1 11.2-28.4z"></path><path fill="#040404" d="M421.8 167H318.2c-25 0-45.2 20.3-45.2 45.2v103.5c0 25 20.3 45.2 45.2 45.2h103.5c25 0 45.2-20.3 45.2-45.2V212.2c.1-24.9-20.2-45.2-45.1-45.2"></path><path fill="#FFF" d="M372.1 215.3h16.2c.1.9.2 1.9.3 2.8.6 3.6 1.8 7 3.7 10.1 1.5 2.4 3.7 3.8 6.3 4.5s5.3.7 7.9.7h5.8v16.2h-3c-2.6 0-5.2 0-7.9-.2-3.2-.2-6.2-1-9.1-2.3-1.4-.6-2.6-1.3-4.1-2v37.1c0 4.9-1.1 9.4-3.3 13.7-3.3 6.4-8.2 11.1-14.8 14-4.9 2.2-10.1 3-15.4 2.4-6.3-.7-12-3.1-16.8-7.3-4.2-3.6-7.1-8-8.9-13.2-1.5-4.4-1.9-8.9-1.3-13.5 1-7.5 4.3-13.8 9.9-18.8 3.9-3.6 8.5-5.9 13.7-7.1 2.8-.6 5.6-.8 8.5-.8h3.3v16.2h-3.4c-1.8 0-3.5 0-5.3.4-5.9 1.5-10.2 6.5-10.7 12.5-.4 5.7 1.9 10.2 6.7 13.3 1.9 1.2 3.9 1.9 6.2 2.1 4.5.4 8.3-1.1 11.4-4.2 2.9-2.9 4.1-6.5 4.1-10.6v-65.7c.1.3.1 0 0-.3"></path><path fill="#CCF1EA" stroke="#040404" stroke-miterlimit="10" stroke-width="1.5" d="M649.7 231H506v124.5h143.7z"></path><path fill="none" stroke="#040404" stroke-miterlimit="10" stroke-width="1.5" d="m535.3 311.1 24.4-21.8 31.1 25.4 32.9-44.3"></path><path fill="#FFF" stroke="#040404" stroke-miterlimit="10" stroke-width="1.5" d="M559.7 295.5c3.1 0 5.6-2.5 5.6-5.6s-2.5-5.6-5.6-5.6-5.6 2.5-5.6 5.6 2.5 5.6 5.6 5.6zm-28 24.4c3.1 0 5.6-2.5 5.6-5.6s-2.5-5.6-5.6-5.6-5.6 2.5-5.6 5.6c0 3 2.5 5.6 5.6 5.6zm92.1-42.2c3.1 0 5.6-2.5 5.6-5.6s-2.5-5.6-5.6-5.6-5.6 2.5-5.6 5.6 2.5 5.6 5.6 5.6zm-32.7 41.5c3.1 0 5.6-2.5 5.6-5.6s-2.5-5.6-5.6-5.6-5.6 2.5-5.6 5.6 2.5 5.6 5.6 5.6z"></path><path fill="none" stroke="#040404" stroke-miterlimit="10" stroke-width="1.5" d="M228.7 76H100v111.5h128.7z"></path><path fill="none" stroke="#040404" stroke-miterlimit="10" stroke-width="1.5" d="m189.9 102.6-25.7 22.9-12.2-5.7-27.2 17.8"></path><path fill="#E5F9F5" stroke="#040404" stroke-miterlimit="10" stroke-width="1.5" d="m146.9 140-12.2.1.1 21.3 12.2-.1z"></path><path fill="#CE3665" stroke="#040404" stroke-miterlimit="10" stroke-width="1.5" d="m171 129.6-12.2.1.2 31.7 12.2-.1z"></path><path fill="#931847" stroke="#040404" stroke-miterlimit="10" stroke-width="1.5" d="m194.4 117.9-12.2.1.3 43.4 12.2-.1z"></path><path fill="none" stroke="#040404" stroke-miterlimit="10" stroke-width="1.5" d="M124.9 110v51.4h79.4"></path><path fill="none" stroke="#040404" stroke-linecap="round" stroke-miterlimit="10" stroke-width="1.5" d="m183.8 101.7 6.4.6.8 5.8"></path><path fill="#FFF" stroke="#040404" stroke-miterlimit="10" stroke-width="1.5" d="M248 243H119v112.7h129z"></path><path fill="#E5F9F5" stroke="#040404" stroke-miterlimit="10" stroke-width="1.5" d="M146.4 274.2c0 4.3 3.5 7.8 7.8 7.8h68.7c4.3 0 7.8-3.5 7.8-7.8s-3.5-7.8-7.8-7.8h-68.7c-4.4 0-7.8 3.5-7.8 7.8zm-.3 24.5c0 4.3 3.5 7.8 7.8 7.8h68.7c4.3 0 7.8-3.5 7.8-7.8s-3.5-7.8-7.8-7.8h-68.7c-4.3 0-7.8 3.5-7.8 7.8zm-.3 24.9c0 4.3 3.5 7.8 7.8 7.8h68.7c4.3 0 7.8-3.5 7.8-7.8s-3.5-7.8-7.8-7.8h-68.7c-4.3.1-7.8 3.6-7.8 7.8z"></path><path fill="#7DEAD5" stroke="#040404" stroke-miterlimit="10" stroke-width="1.5" d="M137.6 274.2c0 4.3 3.5 7.8 7.8 7.8H166c4.3 0 7.8-3.5 7.8-7.8s-3.5-7.8-7.8-7.8h-20.7c-4.3 0-7.7 3.5-7.7 7.8zm-.4 24.5c0 4.3 3.5 7.8 7.8 7.8h51.4c4.3 0 7.8-3.5 7.8-7.8s-3.5-7.8-7.8-7.8H145c-4.3 0-7.8 3.5-7.8 7.8zm0 24.9c0 4.3 3.5 7.8 7.8 7.8h38.4c4.3 0 7.8-3.5 7.8-7.8s-3.5-7.8-7.8-7.8H145c-4.4.1-7.8 3.6-7.8 7.8z"></path><path fill="#FFF" stroke="#040404" stroke-miterlimit="10" stroke-width="1.5" d="M645.7 367.4c12 0 21.7-9.7 21.7-21.7s-9.7-21.7-21.7-21.7-21.7 9.7-21.7 21.7 9.7 21.7 21.7 21.7z"></path><path fill="#CE3665" stroke="#040404" stroke-miterlimit="10" stroke-width="1.5" d="M658 342.1c0-3.4-2.7-6.1-6.1-6.1-2.8 0-5.2 2-5.9 4.6-.7-2.6-3.1-4.6-5.9-4.6-3.4 0-6.1 2.7-6.1 6.1 0 0 0 .4.1 1.1v.2c.5 2.7 2.9 9.2 11.7 15.6 0 0 10.5-7 12-15.5.1-.4.2-.9.2-1.4zM129 259c14.9 0 27-12.1 27-27s-12.1-27-27-27-27 12.1-27 27 12.1 27 27 27z"></path><path fill="#FFF" stroke="#040404" stroke-miterlimit="10" stroke-width="1.5" d="m130 217.1 4.1 8.4c.1.2.3.4.6.4l9.3 1.3c.6.1.9.9.4 1.3l-6.7 6.5c-.2.2-.3.4-.2.7l1.6 9.2c.1.6-.6 1.1-1.1.8l-8.3-4.4c-.2-.1-.5-.1-.7 0l-8.3 4.4c-.6.3-1.2-.2-1.1-.8l1.6-9.2c0-.2 0-.5-.2-.7l-6.7-6.5c-.5-.4-.2-1.2.4-1.3l9.3-1.3c.2 0 .5-.2.6-.4l4.1-8.4c.2-.6 1-.6 1.3 0z"></path><path fill="#CCF1EA" stroke="#040404" stroke-miterlimit="10" stroke-width="1.5" d="M328 206s-10.8-8.7-11.9-22.2c6.8-7.1 10.9-16.7 10.9-27.2 0-21.8-17.7-39.5-39.5-39.5S248 134.8 248 156.6s17.7 39.5 39.5 39.5c7.2 0 13.8-1.9 19.6-5.2 2.8 5.4 8.8 13.5 20.9 15.1z"></path><path fill="#FFF" stroke="#040404" stroke-miterlimit="10" stroke-width="1.5" d="m304.7 160.2-1.2.4.8 1c.3.5.5 1 .5 1.6 0 1.3-.9 2.4-2.2 2.6l-1.2.2.6 1.1q.3.6.3 1.2c0 1.4-1.1 2.6-2.5 2.7h-15.3c-.1 0-1.9 0-3.2-1.2-.3-.2-.6-.4-.8-.6l-.3-.2v-14.2l1.6-1.3 5.4-10c.2-.4.4-.8.5-1.2s.2-.9.1-1.4l-.4-5.6c.3-.2.8-.3 1.2-.3 2.3 0 4.3 3.7 4.3 6.7 0 .4 0 .8-.1 1.2l-.9 6.1h11.7c.8 0 1.5.3 2 .8s.7 1.2.7 1.8c0 .8-.4 1.6-1.1 2.1l-1.1.8 1.2.7c.8.5 1.3 1.3 1.3 2.3-.1 1.3-.9 2.3-1.9 2.7z"></path><path fill="#08C4B2" stroke="#040404" stroke-miterlimit="10" stroke-width="1.5" d="M280.4 152.7H270v18.5h10.4z"></path></svg>