<svg xmlns="http://www.w3.org/2000/svg" width="780" height="440" viewBox="0 0 780 440" fill="none"><rect width="780" height="440" fill="#C7F9F8"></rect><path d="M439.139 98H328.404C301.671 98 280 119.671 280 146.404V257.139C280 283.872 301.671 305.543 328.404 305.543H439.139C465.872 305.543 487.543 283.872 487.543 257.139V146.404C487.543 119.671 465.872 98 439.139 98Z" fill="#040404"></path><path d="M386.063 149.718H403.38C403.496 150.727 403.574 151.724 403.729 152.72C404.325 156.616 405.606 160.253 407.729 163.579C409.346 166.103 411.65 167.643 414.51 168.419C417.293 169.17 420.153 169.131 423.001 169.131C425.045 169.131 427.09 169.131 429.187 169.131V186.5C428.087 186.5 427.013 186.513 425.951 186.5C423.143 186.448 420.334 186.461 417.539 186.305C414.135 186.111 410.874 185.192 407.754 183.821C406.305 183.186 404.92 182.436 403.406 181.685V182.371C403.406 195.365 403.406 208.372 403.406 221.366C403.406 226.556 402.228 231.474 399.86 236.069C396.326 242.915 391.033 247.937 384.005 251.069C378.764 253.411 373.25 254.253 367.556 253.644C360.774 252.92 354.756 250.344 349.579 245.853C345.127 241.996 341.969 237.259 340.079 231.681C338.487 226.983 338.008 222.169 338.642 217.251C339.665 209.226 343.198 202.496 349.19 197.086C353.384 193.281 358.289 190.796 363.828 189.541C366.831 188.855 369.872 188.713 372.927 188.739C374.104 188.739 375.295 188.739 376.499 188.739V206.107C375.269 206.107 374.053 206.12 372.836 206.107C370.947 206.081 369.07 206.107 367.206 206.56C360.942 208.113 356.283 213.51 355.804 219.943C355.351 226.077 357.81 230.827 362.922 234.192C364.902 235.499 367.141 236.198 369.523 236.405C374.299 236.794 378.388 235.266 381.74 231.901C384.859 228.782 386.154 224.912 386.089 220.525C386.05 217.445 386.089 214.377 386.089 211.297C386.089 208.282 386.089 205.266 386.089 202.25C386.089 199.235 386.089 196.219 386.089 193.204C386.089 190.188 386.089 187.173 386.089 184.157C386.089 181.142 386.089 178.126 386.089 175.11C386.089 172.095 386.089 169.079 386.089 166.064C386.089 163.048 386.089 160.033 386.089 157.017C386.089 154.843 386.089 152.668 386.076 150.494C386.076 150.261 386.076 150.015 386.076 149.73L386.063 149.718Z" fill="white"></path><path d="M162.122 260H132V352.948H162.122V260Z" fill="white" stroke="#040404" stroke-width="1.5" stroke-miterlimit="10"></path><path d="M161.959 322.662H132.402V352.908H161.959V322.662Z" fill="#FFE16E" stroke="#040404" stroke-width="1.5" stroke-miterlimit="10"></path><path d="M209.987 260.124H180.429V352.895H209.987V260.124Z" fill="white" stroke="#040404" stroke-width="1.5" stroke-miterlimit="10"></path><path d="M209.887 277.212H180.367V352.948H209.887V277.212Z" fill="#FFE16E" stroke="#040404" stroke-width="1.5" stroke-miterlimit="10"></path><path d="M257.652 260H228.391V352.948H257.652V260Z" fill="white" stroke="#040404" stroke-width="1.5" stroke-miterlimit="10"></path><path d="M257.652 294.425H228.391V352.948H257.652V294.425Z" fill="#FFE16E" stroke="#040404" stroke-width="1.5" stroke-miterlimit="10"></path><path d="M552.687 139.108L552.869 138.662L552.539 138.311C547.088 132.516 543.75 124.714 543.75 116.131C543.75 98.2474 558.247 83.75 576.131 83.75C594.014 83.75 608.512 98.2474 608.512 116.131C608.512 134.014 594.014 148.512 576.131 148.512C569.451 148.512 563.246 146.49 558.091 143.025L557.706 142.767L557.303 142.994L549.243 147.548L552.687 139.108Z" fill="#FFE16E" stroke="#040404" stroke-width="1.5"></path><path d="M575.767 133.157H575.779L590.405 118.283C594.116 114.519 594.091 108.445 590.332 104.705H590.319C586.572 100.977 580.525 101.014 576.814 104.778L575.621 105.988L574.417 104.791C570.669 101.063 564.634 101.087 560.911 104.852C557.2 108.628 557.224 114.702 560.984 118.442L575.755 133.17H575.767V133.157Z" fill="white" stroke="#040404" stroke-width="1.5" stroke-miterlimit="10"></path><path d="M289 233H195V170" stroke="#040404" stroke-width="1.5"></path><path d="M478.681 170H572.681V233" stroke="#040404" stroke-width="1.5"></path><path d="M239.245 143.802C243.913 119.559 228.045 96.1213 203.802 91.4529C179.559 86.7845 156.121 102.653 151.453 126.896C146.784 151.139 162.653 174.577 186.896 179.245C211.139 183.913 234.577 168.045 239.245 143.802Z" fill="#FFBC00" stroke="#040404" stroke-width="1.5" stroke-miterlimit="10"></path><path d="M195.289 118.437C199.89 118.437 203.533 121.312 203.533 124.859C203.533 126.584 204.97 127.926 206.792 127.926C208.613 127.926 210.051 126.584 210.051 124.859C210.051 118.916 205.066 113.932 198.452 112.686V109.043C198.452 107.318 197.014 105.976 195.193 105.976C193.372 105.976 191.934 107.318 191.934 109.043V112.686C185.32 113.932 180.336 118.916 180.336 124.859C180.336 130.419 183.883 135.02 189.73 136.745L198.836 139.525C201.903 140.483 203.628 142.592 203.628 145.563C203.628 149.11 199.986 151.986 195.385 151.986C190.784 151.986 187.142 149.11 187.142 145.563C187.142 143.838 185.704 142.496 183.883 142.496C182.061 142.496 180.623 143.838 180.623 145.563C180.623 151.506 185.608 156.491 192.222 157.737V161.379C192.222 163.105 193.66 164.447 195.481 164.447C197.302 164.447 198.74 163.105 198.74 161.379V157.737C205.354 156.491 210.338 151.506 210.338 145.563C210.338 140.004 206.792 135.403 200.945 133.678L191.838 130.898C188.771 129.939 187.046 127.83 187.046 124.859C187.046 121.217 190.784 118.437 195.289 118.437Z" fill="white" stroke="#040404" stroke-width="1.5" stroke-miterlimit="10"></path><path d="M639.102 221H534.898C529.984 221 526 224.868 526 229.639V344.33C526 349.102 529.984 352.97 534.898 352.97H639.102C644.016 352.97 648 349.102 648 344.33V229.639C648 224.868 644.016 221 639.102 221Z" fill="#7DEAD5" stroke="#040404" stroke-width="1.5" stroke-linecap="round" stroke-linejoin="round"></path><path d="M631.486 233.612H542.507C540.12 233.612 538.184 235.492 538.184 237.81V265.45C538.184 267.768 540.12 269.648 542.507 269.648H631.486C633.873 269.648 635.809 267.768 635.809 265.45V237.81C635.809 235.492 633.873 233.612 631.486 233.612Z" fill="white" stroke="#040404" stroke-width="1.5" stroke-linecap="round" stroke-linejoin="round"></path><path d="M561.992 284.41H540.377V305.397H561.992V284.41Z" fill="#CCF1EA" stroke="#040404" stroke-width="1.5" stroke-miterlimit="10"></path><path d="M561.992 317.251H540.377V338.238H561.992V317.251Z" fill="#CCF1EA" stroke="#040404" stroke-width="1.5" stroke-miterlimit="10"></path><path d="M597.102 284.41H575.488V305.397H597.102V284.41Z" fill="#CCF1EA" stroke="#040404" stroke-width="1.5" stroke-miterlimit="10"></path><path d="M632.222 284.41H610.607V337.45H632.222V284.41Z" fill="#FFE16E" stroke="#040404" stroke-width="1.5" stroke-linecap="round" stroke-linejoin="round"></path><path d="M597.102 317.251H575.488V338.238H597.102V317.251Z" fill="#CCF1EA" stroke="#040404" stroke-width="1.5" stroke-miterlimit="10"></path><path d="M530.427 315.938C530.714 315.938 530.924 315.938 531.153 315.938C537.55 315.938 543.948 315.938 550.345 315.938C551.797 315.938 553.057 316.415 554.069 317.447C555.922 319.337 555.769 322.335 553.725 324.035C553.248 324.436 552.732 324.799 552.217 325.181C552.064 325.295 551.911 325.429 551.682 325.601C552.408 326.021 553.076 326.384 553.725 326.766C554.89 327.453 555.635 328.465 555.921 329.783C556.418 331.979 555.234 334.194 553.095 335.035C552.58 335.245 552.026 335.378 551.491 335.55C551.262 335.627 551.052 335.703 550.746 335.799C551.166 336.371 551.548 336.868 551.93 337.384C553.401 339.331 553.267 341.795 551.625 343.495C550.861 344.277 549.906 344.698 548.818 344.85C548.245 344.927 547.672 345.041 547.042 345.156C547.29 345.614 547.5 346.015 547.691 346.435C547.92 346.932 548.206 347.409 548.34 347.925C549.18 350.847 547.003 353.75 543.967 353.75C535.316 353.75 526.665 353.75 518.014 353.75C515.895 353.75 513.985 353.024 512.266 351.763C511.693 351.343 511.082 350.98 510.452 350.618C510.223 350.484 510.127 350.369 510.127 350.102C510.127 349.701 510.127 349.281 510.127 348.88C510.127 341.451 510.127 334.042 510.127 326.613C510.127 326.193 510.223 325.906 510.567 325.658C510.834 325.467 511.044 325.219 511.311 325.047C512.744 324.111 513.469 322.641 514.252 321.189C516.945 316.148 519.676 311.145 522.388 306.103C523.113 304.747 523.4 303.296 523.285 301.749C523.075 299.19 522.903 296.65 522.693 294.091C522.655 293.576 522.636 293.06 522.559 292.563C522.521 292.239 522.636 292.086 522.903 291.971C524.374 291.341 525.768 291.513 527.085 292.372C528.231 293.117 529.091 294.129 529.778 295.275C531.344 297.872 532.203 300.699 532.089 303.735C532.031 305.091 531.783 306.447 531.573 307.784C531.191 310.304 530.79 312.806 530.408 315.308C530.389 315.48 530.389 315.651 530.37 315.9L530.427 315.938Z" fill="white" stroke="#040404" stroke-width="1.5" stroke-miterlimit="10"></path><path d="M507.832 320.62H491.218C489.71 320.62 488.487 321.843 488.487 323.351V354.269C488.487 355.777 489.71 357 491.218 357H507.832C509.341 357 510.563 355.777 510.563 354.269V323.351C510.563 321.843 509.341 320.62 507.832 320.62Z" fill="#FFBC00" stroke="#040404" stroke-width="1.5" stroke-miterlimit="10"></path></svg>