<svg xmlns="http://www.w3.org/2000/svg" xmlns:xlink="http://www.w3.org/1999/xlink" version="1.1" id="Layer_1" x="0px" y="0px" viewBox="0 0 780 440" style="enable-background:new 0 0 780 440;" xml:space="preserve"> <style type="text/css"> .st0{clip-path:url(#SVGID_00000147194750369947375870000003125544547751610003_);} .st1{fill:#205BC3;} .st2{fill:url(#SVGID_00000182501752496785591850000003951591659883323574_);} .st3{fill:none;stroke:#040404;stroke-width:1.5;stroke-linecap:round;stroke-linejoin:round;} .st4{fill:#FFFFFF;stroke:#040404;stroke-width:1.5;stroke-linecap:round;stroke-linejoin:round;stroke-miterlimit:10;} .st5{fill:none;stroke:#040404;stroke-width:1.5;stroke-linecap:round;stroke-linejoin:round;stroke-miterlimit:10;} .st6{fill:#C7DBF9;stroke:#040404;stroke-width:1.5;stroke-linecap:round;stroke-linejoin:round;stroke-miterlimit:10;} .st7{fill:#205BC3;stroke:#040404;stroke-width:1.5;stroke-linecap:round;stroke-linejoin:round;stroke-miterlimit:10;} .st8{fill:#7DEAD5;stroke:#040404;stroke-width:1.5;stroke-linecap:round;stroke-linejoin:round;stroke-miterlimit:10;} .st9{fill:#08C4B2;stroke:#040404;stroke-width:1.5;stroke-linecap:round;stroke-linejoin:round;} .st10{fill:none;stroke:#040404;stroke-width:1.5;stroke-dasharray:4.47,4.47;} .st11{fill:#A1C2F8;stroke:#040404;stroke-width:1.5;stroke-linecap:round;stroke-linejoin:round;stroke-miterlimit:10;} .st12{fill:#0C3F89;stroke:#040404;stroke-width:1.5;stroke-linecap:round;stroke-linejoin:round;stroke-miterlimit:10;} .st13{fill-rule:evenodd;clip-rule:evenodd;fill:#C7F9F8;filter:url(#Adobe_OpacityMaskFilter);stroke:#040404;stroke-width:1.5;stroke-linecap:round;stroke-linejoin:round;stroke-miterlimit:10;} .st14{mask:url(#mask0_33_17_00000031898077713635780650000011269796368025801661_);} .st15{fill-rule:evenodd;clip-rule:evenodd;fill:#CCF1EA;stroke:#040404;stroke-width:1.5;stroke-linecap:round;stroke-linejoin:round;stroke-miterlimit:10;} .st16{fill:#FFFFFF;filter:url(#Adobe_OpacityMaskFilter_00000168082390222982795200000000883318819253123771_);} .st17{mask:url(#mask1_33_17_00000127024835250161619060000003137895469111554235_);} .st18{fill:#FFFFFF;} </style> <g> <defs> <rect id="SVGID_1_" width="780" height="440"></rect> </defs> <clipPath id="SVGID_00000101097009624974136440000002909051494013945772_"> <use xlink:href="#SVGID_1_" style="overflow:visible;"></use> </clipPath> <g style="clip-path:url(#SVGID_00000101097009624974136440000002909051494013945772_);"> <rect class="st1" width="780" height="440"></rect> <linearGradient id="SVGID_00000060726041506399621030000017862429239006355842_" gradientUnits="userSpaceOnUse" x1="526.5311" y1="455.4394" x2="112.6511" y2="-258.2707" gradientTransform="matrix(1 0 0 -1 0 440)"> <stop offset="0" style="stop-color:#FFFFFF"></stop> <stop offset="1" style="stop-color:#A1C2F8"></stop> </linearGradient> <path style="fill:url(#SVGID_00000060726041506399621030000017862429239006355842_);" d="M780,0H0v440h780V0z"></path> <path class="st3" d="M483,118.5h143.9"></path> <path class="st3" d="M483,157h143.9"></path> <path class="st3" d="M483,195h97.3"></path> <path class="st4" d="M495,233h141c6.6,0,12,5.4,12,12v104c0,6.6-5.4,12-12,12H495c-6.6,0-12-5.4-12-12V245 C483,238.3,488.4,233,495,233z"></path> <path class="st5" d="M599.8,252.7l-39.2,34.9L542,279l-41.5,27.2"></path> <path class="st6" d="M534.2,309.8l-18.6,0.1l0.2,32.6l18.6-0.1L534.2,309.8z"></path> <path class="st7" d="M570.9,294l-18.6,0.1l0.3,48.4l18.6-0.1L570.9,294z"></path> <path class="st8" d="M606.7,276l-18.6,0.1l0.5,66.3l18.6-0.1L606.7,276z"></path> <path class="st5" d="M500.5,264v78.5h130.5"></path> <path class="st5" d="M590.5,251.4l9.8,1l1.2,8.8"></path> <path class="st9" d="M634.1,261.1h-0.3c-0.1-0.1-0.2-0.2-0.3-0.3c-4.5-2.7-8.7-5.8-12.7-9.2c-5.7-4.9-10.8-10.2-14.6-16.7 c-3.2-5.3-5.2-11-5.2-17.2c0-8.7,0-17.4,0-26.1c0-0.6,0.1-0.9,0.7-1.1c10.6-4.8,21.2-9.6,31.8-14.4c0.3-0.1,0.8-0.1,1.1,0 c9.4,4.3,18.9,8.5,28.3,12.8c1.4,0.6,2.8,1.2,4.2,1.8v0.3c0,0.2,0,12.8,0,21.1c0,6.2-1,12.4-3.1,18.3c-0.5,1.5-1.1,2.8-1.6,3.8 c-4.3,7.5-10.2,13.6-16.9,18.9C641.8,255.9,637.9,258.4,634.1,261.1L634.1,261.1z"></path> <path class="st4" d="M628.3,236.5L610,218.2l6.2-6.2l12.1,12.1l23.4-23.4l6.2,6.2L628.3,236.5z"></path> <path class="st4" d="M634,162.1c18.3,0,33-14.8,33-33.1S652.3,96,634,96s-33,14.8-33,33.1S615.7,162.1,634,162.1z"></path> <path class="st6" d="M638.5,121.2c0.2,0,0.3,0,0.4,0c3.7,0,7.5,0,11.2,0c0.8,0,1.6,0.3,2.2,0.9c1.1,1.1,1,2.9-0.2,3.9 c-0.3,0.2-0.6,0.4-0.9,0.7c-0.1,0.1-0.2,0.1-0.3,0.2c0.4,0.2,0.8,0.5,1.2,0.7c0.7,0.4,1.1,1,1.3,1.8c0.3,1.3-0.4,2.6-1.7,3.1 c-0.3,0.1-0.6,0.2-0.9,0.3c-0.1,0-0.3,0.1-0.4,0.1c0.2,0.3,0.5,0.6,0.7,0.9c0.9,1.1,0.8,2.6-0.2,3.6c-0.4,0.5-1,0.7-1.6,0.8 c-0.3,0-0.7,0.1-1,0.2c0.1,0.3,0.3,0.5,0.4,0.7c0.1,0.3,0.3,0.6,0.4,0.9c0.5,1.7-0.8,3.4-2.6,3.4c-5.1,0-10.1,0-15.2,0 c-1.2,0-2.4-0.4-3.4-1.2c-0.3-0.2-0.7-0.5-1.1-0.7c-0.1-0.1-0.2-0.1-0.2-0.3c0-0.2,0-0.5,0-0.7c0-4.3,0-8.7,0-13 c0-0.2,0.1-0.4,0.3-0.6c0.2-0.1,0.3-0.3,0.4-0.4c0.8-0.5,1.3-1.4,1.7-2.3c1.6-2.9,3.2-5.9,4.8-8.8c0.4-0.8,0.6-1.6,0.5-2.5 c-0.1-1.5-0.2-3-0.3-4.5c0-0.3,0-0.6-0.1-0.9c0-0.2,0-0.3,0.2-0.3c0.9-0.4,1.7-0.3,2.4,0.2c0.7,0.4,1.2,1,1.6,1.7 c0.9,1.5,1.4,3.2,1.4,4.9c0,0.8-0.2,1.6-0.3,2.4c-0.2,1.5-0.5,2.9-0.7,4.4C638.4,120.9,638.4,121,638.5,121.2L638.5,121.2z"></path> <path class="st7" d="M625.3,123.9h-9.7c-0.9,0-1.6,0.7-1.6,1.6v18.1c0,0.9,0.7,1.6,1.6,1.6h9.7c0.9,0,1.6-0.7,1.6-1.6v-18.1 C626.9,124.7,626.1,123.9,625.3,123.9z"></path> <path class="st10" d="M189.9,205v110h103"></path> <path class="st4" d="M190.4,280c42.8,0,77.5-34.7,77.5-77.5c0-42.8-34.7-77.5-77.5-77.5s-77.5,34.7-77.5,77.5 C112.9,245.3,147.6,280,190.4,280z"></path> <path class="st11" d="M228.1,232.3c-24.9,10.6-48.5,9.7-73.9-0.1c-2.4-0.9-4-3.4-3.8-6l0.9-12.1c0,0,0,0,0,0l2.5-33.5h74l2.2,25 l1.8,20.7C232,228.9,230.5,231.3,228.1,232.3z"></path> <path class="st12" d="M248.6,186.3c0,0,0-0.1-0.1-0.1c0,0,0,0,0,0c0,0-0.1-0.1-0.1-0.1c-0.1-0.1-0.1-0.1-0.2-0.2 c-0.1,0-0.1-0.1-0.2-0.1c-0.1-0.1-0.3-0.1-0.4-0.1H134c-0.1,0-0.3,0-0.4,0.1c-0.1,0-0.1,0.1-0.2,0.1c-0.1,0.1-0.2,0.2-0.3,0.3 c0,0,0,0.1-0.1,0.1c0,0,0,0.1-0.1,0.1c0,0,0,0,0,0c0,0,0,0.1,0,0.1c0,0.1,0,0.1,0,0.2c0,0.4,0.3,0.8,0.7,0.9l56.9,16.9 c0.1,0,0.2,0,0.3,0c0.1,0,0.2,0,0.3,0l56.8-16.9c0.4-0.1,0.7-0.5,0.7-0.9C248.7,186.7,248.7,186.5,248.6,186.3z"></path> <path class="st7" d="M248.7,186.8v9.1c0,0.5-0.3,0.9-0.7,1l-56.9,16.9c-0.1,0-0.2,0-0.3,0c-0.1,0-0.2,0-0.3,0l-56.9-16.9 c-0.4-0.1-0.7-0.5-0.7-1v-9.1c0-0.1,0-0.1,0-0.2c0,0.1,0,0.1,0,0.2c0,0.4,0.3,0.8,0.7,0.9l56.9,16.9c0.1,0,0.2,0,0.3,0 c0.1,0,0.2,0,0.3,0l56.8-16.9C248.4,187.6,248.7,187.3,248.7,186.8c0-0.1,0-0.3-0.1-0.4C248.7,186.5,248.7,186.6,248.7,186.8z"></path> <path class="st11" d="M248.7,186.8c0,0.4-0.3,0.8-0.7,0.9l-56.8,16.9c-0.1,0-0.2,0-0.3,0c-0.1,0-0.2,0-0.3,0l-56.9-16.9 c-0.4-0.1-0.7-0.5-0.7-0.9c0-0.1,0-0.1,0-0.2c0,0,0-0.1,0-0.1c0,0,0,0,0,0c0-0.1,0-0.1,0.1-0.1c0,0,0-0.1,0.1-0.1 c0.1-0.1,0.2-0.2,0.3-0.3c0.1,0,0.1-0.1,0.2-0.1c0,0,0,0,0,0l55-21.7c1.5-0.6,3.1-0.6,4.5,0l55,21.7c0,0,0,0,0,0 c0.1,0,0.1,0.1,0.2,0.1c0.1,0,0.1,0.1,0.2,0.2c0,0,0.1,0.1,0.1,0.1c0,0,0,0,0,0c0,0,0.1,0.1,0.1,0.1 C248.7,186.5,248.7,186.6,248.7,186.8z"></path> <defs> <filter id="Adobe_OpacityMaskFilter" filterUnits="userSpaceOnUse" x="292.2" y="50.2" width="167.5" height="339.5"> <feColorMatrix type="matrix" values="1 0 0 0 0 0 1 0 0 0 0 0 1 0 0 0 0 0 1 0"></feColorMatrix> </filter> </defs> <mask maskUnits="userSpaceOnUse" x="292.2" y="50.2" width="167.5" height="339.5" id="mask0_33_17_00000031898077713635780650000011269796368025801661_"> <path class="st13" d="M451,84l-0.2,272.7c0,10.1-6.3,18.8-15.2,22.3c-2.7,1.1-5.7,1.7-8.7,1.7l-101.9-0.1 c-3.8,0-7.5-0.9-10.7-2.6c-7.8-4-13.2-12.1-13.2-21.4l0.2-272.7c0-9.2,5.3-17.3,13-21.3c3.3-1.7,7-2.7,11-2.7l24.3,0 c0.3,0.4,0.6,0.8,0.9,1.1l4.2,4.2c0.8,0.8,1.6,1.3,2.5,1.6c0.8,0.3,1.6,0.4,2.5,0.4l33.2,0c0.9,0,1.8-0.2,2.6-0.5 c0.9-0.3,1.7-0.9,2.4-1.6l4.2-4.2c0.4-0.4,0.7-0.7,0.9-1.1l24.3,0c3,0,5.8,0.6,8.5,1.6C444.6,65.1,451,73.8,451,84z"></path> </mask> <g class="st14"> <path class="st9" d="M459,51H293v338h166V51z"></path> </g> <path class="st15" d="M430,51.1l-24.4,0l-58.8,0l-24.4,0c-16.1,0-29.2,12.8-29.2,28.5l-0.2,281c0,15.7,13.1,28.5,29.2,28.5 l107.7,0.1c16.1,0,29.2-12.8,29.2-28.5l0.2-281C459.2,63.9,446.1,51.1,430,51.1z M451,356.5c0,13.2-10.8,23.9-24,23.9l-101.9-0.1 c-13.2,0-23.9-10.8-23.9-24l0.2-272.7c0-13.2,10.8-23.9,24-23.9l24.3,0c0.3,0.4,0.6,0.8,0.9,1.1l4.2,4.2c1.4,1.4,3.1,2.1,5,2.1 l33.2,0c1.9,0,3.6-0.7,5-2.1l4.2-4.2c0.4-0.4,0.7-0.7,0.9-1.1l24.3,0c13.2,0,23.9,10.8,23.9,24L451,356.5z"></path> <path class="st5" d="M421.4,102.7c3.1,0,5.6-2.5,5.6-5.6c0-3.1-2.5-5.6-5.6-5.6c-3.1,0-5.6,2.5-5.6,5.6 C415.8,100.2,418.3,102.7,421.4,102.7z"></path> <path class="st5" d="M432.7,104.6l-6.2-4"></path> <defs> <filter id="Adobe_OpacityMaskFilter_00000143617904855159963870000004990490882648354751_" filterUnits="userSpaceOnUse" x="336.2" y="173.3" width="79.2" height="91.3"> <feColorMatrix type="matrix" values="1 0 0 0 0 0 1 0 0 0 0 0 1 0 0 0 0 0 1 0"></feColorMatrix> </filter> </defs> <mask maskUnits="userSpaceOnUse" x="336.2" y="173.3" width="79.2" height="91.3" id="mask1_33_17_00000127024835250161619060000003137895469111554235_"> <path style="fill:#FFFFFF;filter:url(#Adobe_OpacityMaskFilter_00000143617904855159963870000004990490882648354751_);" d=" M416,172.3h-79.9v93.4H416V172.3z"></path> </mask> <g class="st17"> <path class="st18" d="M378.1,173.3c5,0,10,0,15.1,0c0.1,0.9,0.1,1.7,0.3,2.6c0.6,3.5,1.6,6.7,3.4,9.6c1.4,2.2,3.4,3.6,5.9,4.2 c2.4,0.7,4.9,0.6,7.3,0.6c1.7,0,3.6,0,5.3,0c0,5.1,0,10.2,0,15.2c-1,0-1.9,0-2.9,0c-2.4,0-4.9,0-7.3-0.1c-3-0.1-5.7-1-8.5-2.2 c-1.3-0.6-2.4-1.2-3.7-1.9c0,0.1,0,0.4,0,0.6c0,11.5,0,22.9,0,34.2c0,4.5-1,8.8-3.2,12.9c-3,5.9-7.6,10.4-13.8,13.2 c-4.6,2-9.3,2.8-14.3,2.3c-5.9-0.6-11.2-2.9-15.6-6.8c-3.9-3.3-6.6-7.5-8.3-12.5c-1.4-4.1-1.9-8.4-1.3-12.6 c0.9-7.1,4-12.9,9.2-17.7c3.6-3.3,7.9-5.5,12.8-6.7c2.6-0.6,5.3-0.7,7.9-0.7c1,0,2,0,3.2,0c0,5.1,0,10.2,0,15.2c-1,0-2.2,0-3.2,0 c-1.6,0-3.3,0-4.9,0.4c-5.5,1.3-9.5,6.1-9.9,11.7c-0.4,5.4,1.7,9.6,6.2,12.5c1.7,1.2,3.7,1.7,5.7,1.9c4.2,0.3,7.7-1,10.6-3.9 c2.7-2.8,3.9-6.1,3.7-10c0-2.8,0-5.4,0-8.1c0-2.6,0-5.4,0-8c0-2.6,0-5.4,0-8c0-2.6,0-5.4,0-8c0-2.6,0-5.4,0-8c0-2.6,0-5.4,0-8 s0-5.4,0-8c0-1.9,0-3.8,0-5.7C378.1,173.9,378.1,173.6,378.1,173.3z"></path> </g> </g> </g> </svg>