<svg xmlns="http://www.w3.org/2000/svg" width="780" height="440" viewBox="0 0 780 440" fill="none"><path fill="#205BC3" d="M0 0h780v440H0z"></path><path d="M547.5 313.231c-.414 0-.75.336-.75.75h-3.5c0-.414-.336-.75-.75-.75h-5c-.414 0-.75.336-.75.75h-3.5c0-.414-.336-.75-.75-.75h-5c-.414 0-.75.336-.75.75h-3.5c0-.414-.336-.75-.75-.75h-5c-.414 0-.75.336-.75.75h-3.5c0-.414-.336-.75-.75-.75h-5c-.414 0-.75.336-.75.75h-3.5c0-.414-.336-.75-.75-.75h-5c-.414 0-.75.336-.75.75h-3.5c0-.414-.336-.75-.75-.75h-5c-.414 0-.75.336-.75.75h-3.5c0-.414-.336-.75-.75-.75h-5c-.414 0-.75.336-.75.75h-3.5c0-.414-.336-.75-.75-.75h-5c-.414 0-.75.336-.75.75h-3.5c0-.414-.336-.75-.75-.75h-5c-.414 0-.75.336-.75.75h-3.5c0-.414-.336-.75-.75-.75h-5c-.414 0-.75.336-.75.75h-3.5c0-.414-.336-.75-.75-.75h-5c-.414 0-.75.336-.75.75h-3.5c0-.414-.336-.75-.75-.75h-5c-.414 0-.75.336-.75.75h-3.5c0-.414-.336-.75-.75-.75h-5c-.414 0-.75.336-.75.75h-3.5c0-.414-.336-.75-.75-.75h-5c-.414 0-.75.336-.75.75h-3.5c0-.414-.336-.75-.75-.75h-5c-.414 0-.75.336-.75.75h-3.5c0-.414-.336-.75-.75-.75h-5c-.414 0-.75.336-.75.75h-3.5c0-.414-.336-.75-.75-.75h-5c-.414 0-.75.336-.75.75h-3.5c0-.414-.336-.75-.75-.75h-5c-.414 0-.75.336-.75.75h-3.5c0-.414-.336-.75-.75-.75h-5c-.414 0-.75.336-.75.75h-3.5c0-.414-.336-.75-.75-.75h-5c-.414 0-.75.336-.75.75h-3.5c0-.414-.336-.75-.75-.75h-5c-.414 0-.75.336-.75.75h-3.5c0-.414-.336-.75-.75-.75h-5c-.414 0-.75.336-.75.75h-3.5c0-.414-.336-.75-.75-.75h-5c-.414 0-.75.336-.75.75h-3.5c0-.414-.336-.75-.75-.75h-5c-.414 0-.75.336-.75.75h-3.5c0-.414-.336-.75-.75-.75h-5c-.414 0-.75.336-.75.75h-3.5c0-.414-.336-.75-.75-.75h-5c-.414 0-.75.336-.75.75h-3.5c0-.414-.336-.75-.75-.75h-5c-.414 0-.75.336-.75.75h-3.5c0-.414-.336-.75-.75-.75h-5c-.414 0-.75.336-.75.75h-3.5c0-.414-.336-.75-.75-.75h-5c-.414 0-.75.336-.75.75h-3.5c0-.414-.336-.75-.75-.75h-5c-.414 0-.75.336-.75.75h-3.5c0-.414-.336-.75-.75-.75h-5c-.414 0-.75.336-.75.75h-3.5c0-.414-.336-.75-.75-.75H230c-.838 0-1.673-.016-2.504-.048-.413-.016-.76.305-.778.717-1.188-.059-2.369-.15-3.543-.272.045-.41-.25-.779-.66-.827-1.661-.192-3.308-.447-4.938-.763-.405-.078-.797.185-.878.59-1.163-.24-2.318-.51-3.463-.81.107-.398-.128-.809-.526-.918-1.608-.441-3.198-.942-4.768-1.501-.389-.139-.817.063-.957.451-1.112-.41-2.213-.848-3.304-1.315.164-.378-.008-.819-.385-.985-1.523-.671-3.025-1.398-4.504-2.179-.365-.193-.817-.054-1.011.31-1.04-.563-2.068-1.152-3.085-1.767.216-.352.106-.812-.245-1.029-1.413-.874-2.803-1.799-4.167-2.773-.336-.24-.803-.163-1.044.172-.955-.696-1.898-1.415-2.828-2.158.259-.321.21-.792-.11-1.052-1.289-1.05-2.552-2.145-3.788-3.283-.304-.28-.777-.261-1.058.041-.861-.807-1.709-1.635-2.542-2.483.296-.288.303-.762.016-1.059-1.154-1.195-2.28-2.429-3.377-3.702-.27-.313-.742-.349-1.056-.081-.763-.9-1.512-1.819-2.246-2.755.325-.254.385-.723.133-1.05-1.015-1.317-2.002-2.668-2.957-4.053-.235-.34-.701-.426-1.041-.192-.664-.977-1.313-1.971-1.946-2.979.351-.218.459-.679.242-1.031-.874-1.415-1.718-2.861-2.531-4.336-.199-.362-.654-.494-1.016-.296-.563-1.039-1.11-2.091-1.641-3.157.37-.182.523-.631.342-1.002-.732-1.494-1.432-3.013-2.1-4.558-.165-.379-.605-.554-.984-.392-.461-1.086-.907-2.184-1.336-3.294.386-.148.58-.58.433-.966-.589-1.557-1.147-3.135-1.672-4.735-.129-.392-.552-.607-.945-.479-.36-1.124-.705-2.259-1.033-3.402.397-.113.629-.526.518-.924-.449-1.603-.865-3.226-1.248-4.866-.094-.402-.496-.653-.898-.56-.261-1.152-.506-2.312-.734-3.48.406-.077.672-.469.596-.875-.309-1.637-.584-3.289-.826-4.956-.06-.409-.439-.693-.848-.635-.162-1.169-.308-2.346-.437-3.529.411-.043.71-.411.668-.822-.171-1.657-.307-3.327-.41-5.009-.026-.412-.38-.726-.792-.703-.065-1.178-.113-2.363-.145-3.553.413-.009.741-.351.733-.765-.017-.837-.026-1.677-.026-2.52s.009-1.683.026-2.52c.008-.414-.32-.756-.733-.765.032-1.19.08-2.375.145-3.553.412.024.766-.291.792-.703.103-1.682.239-3.352.409-5.008.043-.412-.256-.78-.667-.823.129-1.183.275-2.36.437-3.529.409.058.788-.226.848-.635.242-1.667.517-3.319.826-4.956.076-.406-.19-.797-.596-.875.228-1.168.473-2.328.734-3.48.402.093.804-.158.898-.56.383-1.64.799-3.262 1.248-4.866.111-.398-.121-.811-.518-.924.328-1.143.673-2.278 1.033-3.402.393.128.816-.086.945-.479.525-1.6 1.083-3.178 1.672-4.735.147-.386-.047-.818-.433-.966.429-1.109.875-2.208 1.336-3.294.379.162.819-.012.984-.392.668-1.544 1.368-3.064 2.1-4.558.181-.371.028-.819-.342-1.002.531-1.066 1.078-2.118 1.641-3.156.362.198.817.065 1.016-.297.813-1.474 1.657-2.92 2.531-4.336.217-.352.109-.813-.242-1.031.633-1.008 1.282-2.001 1.946-2.978.34.233.806.147 1.041-.193.955-1.385 1.942-2.736 2.957-4.052.252-.328.192-.797-.133-1.051.734-.936 1.483-1.855 2.246-2.755.314.268.786.232 1.056-.081 1.097-1.273 2.223-2.507 3.377-3.702.287-.297.28-.77-.016-1.058.833-.849 1.681-1.677 2.542-2.484.281.302.754.321 1.058.041 1.236-1.138 2.499-2.233 3.788-3.282.32-.261.369-.732.11-1.053.93-.742 1.873-1.462 2.828-2.158.241.335.708.412 1.044.172 1.364-.974 2.754-1.899 4.167-2.773.351-.217.461-.677.245-1.029 1.017-.615 2.045-1.204 3.085-1.767.194.364.646.503 1.011.31 1.479-.781 2.981-1.508 4.504-2.179.377-.166.549-.607.385-.985 1.091-.467 2.192-.905 3.304-1.315.14.388.568.59.957.451 1.57-.559 3.16-1.06 4.768-1.501.398-.109.633-.519.526-.918 1.145-.3 2.3-.57 3.463-.809.081.404.473.667.878.589 1.63-.316 3.277-.571 4.938-.763.41-.047.705-.417.66-.827 1.174-.122 2.355-.213 3.543-.272.018.412.365.733.778.717.831-.032 1.666-.048 2.504-.048h2.5c.414 0 .75-.336.75-.75h3.5c0 .414.336.75.75.75h5c.414 0 .75-.336.75-.75h3.5c0 .414.336.75.75.75h5c.414 0 .75-.336.75-.75h3.5c0 .414.336.75.75.75h5c.414 0 .75-.336.75-.75h3.5c0 .414.336.75.75.75h5c.414 0 .75-.336.75-.75h3.5c0 .414.336.75.75.75h5c.414 0 .75-.336.75-.75h3.5c0 .414.336.75.75.75h5c.414 0 .75-.336.75-.75h3.5c0 .414.336.75.75.75h5c.414 0 .75-.336.75-.75h3.5c0 .414.336.75.75.75h5c.414 0 .75-.336.75-.75h3.5c0 .414.336.75.75.75h5c.414 0 .75-.336.75-.75h3.5c0 .414.336.75.75.75h5c.414 0 .75-.336.75-.75h3.5c0 .414.336.75.75.75h5c.414 0 .75-.336.75-.75h3.5c0 .414.336.75.75.75h5c.414 0 .75-.336.75-.75h3.5c0 .414.336.75.75.75h5c.414 0 .75-.336.75-.75h3.5c0 .414.336.75.75.75h5c.414 0 .75-.336.75-.75h3.5c0 .414.336.75.75.75h5c.414 0 .75-.336.75-.75h3.5c0 .414.336.75.75.75h5c.414 0 .75-.336.75-.75h3.5c0 .414.336.75.75.75h5c.414 0 .75-.336.75-.75h3.5c0 .414.336.75.75.75h5c.414 0 .75-.336.75-.75h3.5c0 .414.336.75.75.75h5c.414 0 .75-.336.75-.75h3.5c0 .414.336.75.75.75h5c.414 0 .75-.336.75-.75h3.5c0 .414.336.75.75.75h5c.414 0 .75-.336.75-.75h3.5c0 .414.336.75.75.75h5c.414 0 .75-.336.75-.75h3.5c0 .414.336.75.75.75h5c.414 0 .75-.336.75-.75h3.5c0 .414.336.75.75.75h5c.414 0 .75-.336.75-.75h3.5c0 .414.336.75.75.75h5c.414 0 .75-.336.75-.75h3.5c0 .414.336.75.75.75h5c.414 0 .75-.336.75-.75h3.5c0 .414.336.75.75.75h5c.414 0 .75-.336.75-.75h3.5c0 .414.336.75.75.75h5c.414 0 .75-.336.75-.75h3.5c0 .414.336.75.75.75h5c.414 0 .75-.336.75-.75h3.5c0 .414.336.75.75.75h5c.414 0 .75-.336.75-.75h3.5c0 .414.336.75.75.75h5c.414 0 .75-.336.75-.75h3.5c0 .414.336.75.75.75h2.5c.838 0 1.673.016 2.504.048.413.016.76-.305.778-.717 1.188.059 2.369.15 3.543.272-.045.41.25.78.66.827 1.661.192 3.308.447 4.938.763.405.078.797-.185.878-.589 1.163.239 2.318.509 3.463.809-.107.399.128.809.526.918 1.608.441 3.198.942 4.768 1.501.389.139.817-.063.957-.451 1.112.41 2.213.848 3.304 1.315-.164.378.008.819.386.985 1.522.671 3.024 1.398 4.503 2.179.365.193.817.054 1.012-.31 1.039.563 2.068 1.152 3.084 1.767-.215.352-.106.812.245 1.029 1.413.874 2.803 1.799 4.167 2.773.336.24.803.163 1.044-.172.956.696 1.898 1.416 2.828 2.158-.259.321-.21.792.11 1.053 1.289 1.049 2.553 2.144 3.789 3.282.303.28.776.261 1.057-.041.861.807 1.709 1.635 2.542 2.484-.295.288-.303.761-.016 1.058 1.154 1.195 2.28 2.429 3.377 3.702.27.313.742.349 1.056.081.763.9 1.512 1.819 2.247 2.755-.326.254-.386.723-.134 1.05 1.015 1.317 2.002 2.668 2.958 4.053.234.34.7.426 1.041.193.663.977 1.312 1.97 1.945 2.978-.351.218-.459.679-.242 1.031.875 1.416 1.719 2.862 2.531 4.336.2.362.654.495 1.017.297.562 1.038 1.109 2.09 1.64 3.156-.37.183-.523.631-.341 1.002.731 1.494 1.432 3.014 2.1 4.558.164.379.604.554.983.392.462 1.086.907 2.184 1.336 3.294-.386.148-.58.58-.433.966.59 1.557 1.148 3.135 1.673 4.735.129.393.551.607.944.479.36 1.124.705 2.259 1.033 3.402-.397.113-.629.526-.518.924.449 1.604.865 3.226 1.248 4.866.094.402.496.653.899.56.261 1.152.505 2.312.733 3.48-.406.078-.672.469-.596.875.309 1.637.585 3.289.826 4.956.06.409.439.693.848.635.162 1.169.308 2.346.437 3.529-.411.043-.709.411-.667.822.17 1.657.307 3.327.41 5.009.025.412.379.727.792.703.064 1.178.113 2.363.144 3.553-.413.009-.741.351-.732.765.017.837.025 1.677.025 2.52s-.008 1.683-.025 2.52c-.009.414.319.756.732.765-.031 1.19-.08 2.375-.144 3.553-.413-.024-.767.291-.792.703-.103 1.682-.24 3.352-.41 5.009-.042.411.256.779.667.822-.129 1.183-.275 2.36-.437 3.529-.409-.058-.788.226-.847.635-.242 1.667-.518 3.319-.827 4.956-.076.406.19.798.596.875-.228 1.168-.472 2.328-.733 3.48-.403-.093-.805.158-.899.56-.383 1.64-.799 3.263-1.248 4.866-.111.398.121.811.518.924-.328 1.143-.673 2.278-1.033 3.402-.393-.128-.815.087-.944.479-.525 1.6-1.083 3.178-1.673 4.735-.147.386.047.818.433.966-.429 1.11-.874 2.208-1.336 3.294-.379-.162-.819.013-.983.392-.668 1.544-1.369 3.064-2.1 4.558-.182.371-.029.82.341 1.002-.531 1.066-1.078 2.118-1.64 3.157-.363-.198-.817-.066-1.017.296-.812 1.475-1.656 2.92-2.531 4.336-.217.352-.108.813.242 1.031-.633 1.008-1.282 2.001-1.945 2.979-.341-.234-.807-.148-1.041.192-.956 1.385-1.943 2.736-2.958 4.053-.252.327-.192.796.134 1.05-.735.936-1.484 1.855-2.247 2.755-.314-.268-.786-.232-1.056.081-1.097 1.273-2.223 2.507-3.377 3.702-.287.297-.279.771.016 1.059-.833.848-1.681 1.676-2.542 2.483-.281-.302-.754-.321-1.057-.041-1.236 1.138-2.5 2.233-3.789 3.283-.32.26-.369.731-.11 1.052-.93.743-1.872 1.462-2.828 2.158-.241-.335-.708-.412-1.044-.172-1.364.974-2.754 1.899-4.167 2.773-.351.217-.46.677-.245 1.029-1.016.615-2.045 1.204-3.084 1.767-.195-.364-.647-.503-1.012-.31-1.479.781-2.981 1.508-4.503 2.179-.378.166-.55.607-.386.985-1.091.467-2.192.905-3.304 1.315-.14-.388-.568-.59-.957-.451-1.57.559-3.16 1.06-4.768 1.501-.398.109-.633.52-.526.918-1.145.3-2.3.57-3.463.81-.081-.405-.473-.668-.878-.59-1.63.316-3.277.571-4.938.763-.41.048-.705.417-.66.827-1.174.122-2.355.213-3.543.272-.018-.412-.365-.733-.778-.717-.831.032-1.666.048-2.504.048h-2.5z" stroke="#fff" stroke-width="1.5" stroke-miterlimit="10" stroke-linecap="round" stroke-linejoin="round" stroke-dasharray="5 5"></path><rect x="554.017" y="149.996" width="130.843" height="130.843" rx="25.25" fill="#FFB180" stroke="#040404" stroke-width="1.5"></rect><rect x="95.75" y="150.25" width="130.843" height="130.843" rx="25.25" fill="#FFB180" stroke="#040404" stroke-width="1.5"></rect><path d="M162.23 178.969h11.277c.075.657.126 1.306.227 1.955.388 2.536 1.222 4.905 2.604 7.071 1.054 1.643 2.554 2.646 4.416 3.151 1.812.489 3.675.464 5.529.464h4.028v11.31c-.716 0-1.416.008-2.107 0-1.828-.034-3.657-.025-5.478-.126-2.216-.127-4.34-.725-6.371-1.619-.944-.413-1.846-.901-2.832-1.39v25.839c0 3.38-.767 6.582-2.309 9.574-2.301 4.458-5.747 7.728-10.324 9.768-3.413 1.525-7.003 2.073-10.711 1.677-4.416-.472-8.335-2.149-11.706-5.074-2.899-2.511-4.956-5.596-6.186-9.228-1.037-3.059-1.349-6.194-.936-9.397.666-5.225 2.967-9.607 6.869-13.13 2.73-2.478 5.925-4.096 9.532-4.914 1.955-.446 3.935-.539 5.924-.522h2.326v11.31c-.8 0-1.593.008-2.385 0-1.23-.017-2.452 0-3.666.295-4.079 1.011-7.113 4.525-7.425 8.714-.295 3.995 1.307 7.088 4.636 9.279 1.289.851 2.747 1.306 4.298 1.441 3.11.253 5.773-.742 7.955-2.933 2.032-2.031 2.874-4.551 2.832-7.408-.025-2.005 0-4.003 0-6.009v-5.891-5.891-5.89-5.891-5.891-5.891c0-1.416 0-2.832-.008-4.248v-.497l-.009-.008z" fill="#040404"></path><path d="M603.664 202.218h7.139v39.992h-7.139v-39.992zM628.073 194.668h7.14v47.542h-7.14v-47.542z" fill="#D8D7F9" stroke="#040404" stroke-width="1.5" stroke-miterlimit="10"></path><path d="M591.458 220.428h7.14v21.782h-7.14v-21.782zM640.278 187.116h7.14v55.091h-7.14v-55.091zM615.868 205.067h7.14v37.143h-7.14v-37.143z" fill="#205BC3" stroke="#040404" stroke-width="1.5" stroke-miterlimit="10"></path><path d="M317.084 67.4789h142.179c6.393 0 11.575 7.0193 11.575 15.678V353.805c0 8.658-5.182 15.678-11.575 15.678H317.084c-6.393 0-11.575-7.02-11.575-15.678V83.1569c0-8.6587 5.182-15.678 11.575-15.678z" fill="#205BC3"></path><path d="M307.912 313.742H471.4v47c0 13.945-11.305 25.25-25.25 25.25H330.162c-12.289 0-22.25-9.961-22.25-22.25v-50z" fill="#205BC3" stroke="#fff" stroke-width="1.5"></path><mask id="a" style="mask-type:alpha" maskUnits="userSpaceOnUse" x="313" y="75" width="72" height="261"><path d="M322.794 75.8956h51.674c5.302 0 9.6 4.298 9.6 9.5999V326.249c0 5.302-4.298 9.6-9.6 9.6h-51.674c-5.301 0-9.599-4.298-9.599-9.6V85.4955c0-5.3019 4.298-9.5999 9.599-9.5999z" fill="#7DEAD5"></path></mask><g mask="url(#a)"><mask id="b" fill="#fff"><path fill-rule="evenodd" clip-rule="evenodd" d="M333.856 83.9725c1.633-2.8825 5.758-2.8825 7.391 0l5.962 10.5246c.069.1224.132.247.188.3735h.106c2.359 0 4.271 1.912 4.271 4.2705v6.7609c0 2.359-1.912 4.271-4.271 4.271H327.6c-2.358 0-4.27-1.912-4.27-4.271v-6.7609c0-2.3585 1.912-4.2705 4.27-4.2705h.107c.056-.1265.119-.2511.188-.3735l5.961-10.5246z"></path></mask><path fill-rule="evenodd" clip-rule="evenodd" d="M333.856 83.9725c1.633-2.8825 5.758-2.8825 7.391 0l5.962 10.5246c.069.1224.132.247.188.3735h.106c2.359 0 4.271 1.912 4.271 4.2705v6.7609c0 2.359-1.912 4.271-4.271 4.271H327.6c-2.358 0-4.27-1.912-4.27-4.271v-6.7609c0-2.3585 1.912-4.2705 4.27-4.2705h.107c.056-.1265.119-.2511.188-.3735l5.961-10.5246z" fill="#205BC3"></path><path d="M341.247 83.9725l-1.305.7393 1.305-.7393zm-7.391 0l1.306.7393-1.306-.7393zm13.353 10.5246l1.305-.7393-1.305.7393zm.188.3735v1.5h-.975l-.396-.8904 1.371-.6096zm-19.69 0l1.37.6096-.396.8904h-.974v-1.5zm.188-.3735l-1.305-.7393 1.305.7393zm12.047-9.7853c-1.058-1.8683-3.722-1.8683-4.78 0l-2.611-1.4786c2.207-3.8968 7.794-3.8968 10.001 0l-2.61 1.4786zm5.961 10.5246l-5.961-10.5246 2.61-1.4786 5.962 10.5246-2.611 1.4786zm.123.2438c-.036-.0824-.077-.1638-.123-.2438l2.611-1.4786c.093.1647.178.3326.253.5032l-2.741 1.2192zm1.477.8904h-.106v-3h.106v3zm2.771 2.7705c0-1.5301-1.241-2.7705-2.771-2.7705v-3c3.187 0 5.771 2.5835 5.771 5.7705h-3zm0 6.7609v-6.7609h3v6.7609h-3zm-2.771 2.771c1.53 0 2.771-1.241 2.771-2.771h3c0 3.187-2.584 5.771-5.771 5.771v-3zm-19.903 0h19.903v3H327.6v-3zm-2.77-2.771c0 1.53 1.24 2.771 2.77 2.771v3c-3.187 0-5.77-2.584-5.77-5.771h3zm0-6.7609v6.7609h-3v-6.7609h3zm2.77-2.7705c-1.53 0-2.77 1.2404-2.77 2.7705h-3c0-3.187 2.583-5.7705 5.77-5.7705v3zm.107 0h-.107v-3h.107v3zm1.493-1.1342c-.045.08-.086.1614-.123.2438l-2.741-1.2191c.076-.1707.161-.3386.254-.5033l2.61 1.4786zm5.962-10.5246L329.2 95.2364l-2.61-1.4786 5.961-10.5246 2.611 1.4786z" fill="#fff" mask="url(#b)"></path><rect x="-.75" y=".75" width="40.1629" height="20.9132" rx="3.52043" transform="matrix(-1 0 0 1 356.883 104.301)" fill="#205BC3" stroke="#fff" stroke-width="1.5"></rect><path fill="#205BC3" stroke="#fff" stroke-width="1.5" d="M358.305 168.937h-47.3428v144.872h47.3428z"></path><rect x="-.75" y=".75" width="57.7036" height="58.1403" rx="4.37452" transform="matrix(-1 0 0 1 365.654 115.508)" fill="#205BC3" stroke="#fff" stroke-width="1.5"></rect><path d="M321.048 145.328c0 9.19 7.394 16.631 16.504 16.631 9.109 0 16.503-7.441 16.503-16.631 0-9.19-7.394-16.631-16.503-16.631-9.11 0-16.504 7.441-16.504 16.631z" fill="#205BC3" stroke="#fff" stroke-width="1.5"></path><path d="M337.677 134.614v11.289h-9.456" stroke="#fff" stroke-width="1.5" stroke-linecap="round"></path><path d="M349.766 174.829v139.73M335.329 174.829v139.73M320.893 174.829v139.73" stroke="#fff" stroke-width="1.5"></path></g><mask id="c" fill="#fff"><path d="M395.1 96.8673s2.794-12.2811-11.744-14.89-22.314 27.2637-33.144 28.4717c-10.83 1.208-24.05-7.416-24.05-7.416s.386 17.122 24.26 19.084c23.874 1.963 40.3-20.745 40.3-20.745"></path></mask><path d="M395.1 96.8673s2.794-12.2811-11.744-14.89-22.314 27.2637-33.144 28.4717c-10.83 1.208-24.05-7.416-24.05-7.416s.386 17.122 24.26 19.084c23.874 1.963 40.3-20.745 40.3-20.745" fill="#FFB180"></path><path d="M326.162 103.033l.819-1.256-2.383-1.555.064 2.845 1.5-.034zm68.938-6.1657c1.463.3327 1.463.3318 1.463.3309.001-.0004.001-.0014.001-.0021 0-.0015.001-.0032.001-.0051.001-.0037.002-.0082.003-.0135.002-.0105.005-.0241.009-.0405.007-.0329.015-.0774.026-.133.021-.111.047-.2663.074-.4604.055-.3875.113-.9332.132-1.5923.038-1.3115-.076-3.1115-.704-5.02-.633-1.9208-1.787-3.9473-3.808-5.6687-2.019-1.7196-4.828-3.0712-8.676-3.7617l-.53 2.9528c3.421.6139 5.715 1.7758 7.261 3.0927 1.544 1.315 2.417 2.848 2.903 4.3236.49 1.4878.587 2.9213.555 3.994-.015.533-.062.9672-.103 1.2614-.021.1469-.04.258-.053.3281-.007.035-.012.0598-.015.0735-.001.0069-.002.011-.002.0123v-.0001-.0018-.0012c.001-.0008.001-.0016 1.463.3311zm-11.479-16.3664c-4.226-.7585-7.875.886-11.014 3.5023-3.111 2.593-5.883 6.2701-8.441 9.9172-2.607 3.7168-4.975 7.3736-7.396 10.2346-2.456 2.902-4.641 4.571-6.724 4.803l.332 2.981c3.332-.371 6.18-2.89 8.682-5.846 2.538-2.999 5.054-6.8739 7.562-10.45 2.557-3.6459 5.132-7.0232 7.906-9.3353 2.746-2.2888 5.521-3.4 8.563-2.854l.53-2.9528zm-33.575 28.4571c-5.018.56-10.734-1.165-15.327-3.142-2.271-.977-4.214-1.992-5.589-2.763-.687-.385-1.229-.707-1.598-.932-.184-.113-.325-.201-.418-.259-.046-.03-.081-.052-.103-.066-.012-.007-.02-.013-.025-.016-.002-.001-.004-.003-.005-.003v-.001c0 .001 0 .001-.819 1.257-.82 1.256-.82 1.257-.819 1.257l.001.001c.001 0 .002.001.003.001.002.002.005.004.009.007.008.005.019.012.033.021.029.018.069.044.122.078.106.067.26.163.459.284.396.242.971.583 1.693.988 1.443.809 3.481 1.874 5.87 2.902 4.724 2.033 11.033 4.016 16.845 3.367l-.332-2.981zm-23.884-5.925c-1.5.034-1.5.035-1.5.036V103.078c0 .005.001.011.001.018 0 .014.001.032.002.054.002.044.005.104.01.179.011.15.029.361.061.624.063.526.182 1.265.404 2.15.442 1.769 1.299 4.142 2.959 6.58 3.362 4.939 9.86 9.915 22.2 10.929l.246-2.989c-11.534-.949-17.166-5.515-19.966-9.628-1.421-2.087-2.153-4.117-2.529-5.62-.188-.75-.285-1.365-.336-1.783-.025-.209-.039-.368-.046-.469-.003-.051-.005-.087-.006-.108-.001-.011-.001-.017-.001-.02v-.001.003c0 .001 0 .002-1.499.036zm24.137 20.579c12.454 1.024 22.894-4.391 30.138-9.94 3.632-2.783 6.496-5.625 8.454-7.772.979-1.074 1.734-1.978 2.247-2.617.257-.319.453-.572.587-.748.067-.088.118-.157.154-.205.017-.023.031-.042.041-.055.005-.007.009-.012.011-.016.002-.002.003-.004.004-.005 0-.001.001-.001.001-.002.001 0 .001-.001-1.214-.88-1.216-.879-1.216-.879-1.215-.88 0 0-.001.001-.001.002-.002.001-.004.004-.007.008-.006.009-.016.023-.03.042-.029.038-.072.097-.132.175-.118.155-.298.388-.537.686-.479.595-1.193 1.45-2.126 2.474-1.869 2.049-4.603 4.762-8.062 7.411-6.936 5.314-16.647 10.272-28.067 9.333l-.246 2.989z" fill="#040404" mask="url(#c)"></path><mask id="d" fill="#fff"><path d="M363.567 192.482s-7.072 6.065-7.625 24.093c-.554 18.027 16.089 66.858 16.089 66.858s5.688 32.591 6.887 51.918l8.171.646s6.896-30.484 5.302-43.638c-1.594-13.154-6.174-13.951-6.971-21.123-.797-7.172 1.795-42.044 1.795-42.044l3.297-31.886"></path></mask><path d="M363.567 192.482s-7.072 6.065-7.625 24.093c-.554 18.027 16.089 66.858 16.089 66.858s5.688 32.591 6.887 51.918l8.171.646s6.896-30.484 5.302-43.638c-1.594-13.154-6.174-13.951-6.971-21.123-.797-7.172 1.795-42.044 1.795-42.044l3.297-31.886" fill="#EC9AF1"></path><path d="M372.031 283.433l1.478-.258-.02-.115-.038-.111-1.42.484zm6.887 51.918l-1.497.093.081 1.3 1.298.103.118-1.496zm8.171.646l-.118 1.496 1.295.102.286-1.267-1.463-.331zm.126-106.805l-1.492-.155-.002.022-.002.021 1.496.112zm-23.648-36.71c-.976-1.138-.977-1.137-.978-1.137 0 .001-.001.001-.002.002s-.003.002-.004.003c-.003.003-.006.006-.01.009-.008.007-.017.015-.028.025-.022.02-.051.046-.085.078-.069.065-.162.156-.276.273-.228.236-.54.581-.908 1.047-.736.932-1.695 2.344-2.662 4.329-1.937 3.975-3.889 10.208-4.172 19.418l2.999.092c.271-8.818 2.132-14.631 3.869-18.195.87-1.785 1.713-3.016 2.321-3.784.303-.385.549-.655.709-.821.081-.083.14-.14.175-.173.017-.017.029-.027.034-.031.002-.003.003-.003.002-.003 0 .001-.001.002-.002.003-.001 0-.002.001-.003.002l-.001.001c-.001 0-.001.001-.978-1.138zm-9.125 24.047c-.144 4.696.826 11.276 2.312 18.404 1.492 7.161 3.531 14.992 5.582 22.24 2.051 7.251 4.119 13.935 5.675 18.805.777 2.436 1.427 4.419 1.882 5.794.228.687.407 1.223.53 1.587.061.182.108.321.14.415.016.047.028.082.036.106.004.012.007.022.009.028.001.003.002.005.003.007v.002s.001 0 1.42-.484l1.42-.484s0-.001-.001-.001c0-.002-.001-.004-.002-.007-.002-.005-.005-.014-.008-.026-.008-.023-.02-.057-.036-.103-.031-.092-.077-.23-.138-.41-.121-.36-.299-.891-.525-1.574-.452-1.366-1.099-3.338-1.873-5.762-1.548-4.849-3.606-11.5-5.646-18.71-2.041-7.213-4.059-14.97-5.531-22.035-1.48-7.098-2.383-13.382-2.25-17.7l-2.999-.092zm17.589 66.904c-1.477.258-1.477.258-1.477.259v.001s0 .002.001.004c0 .004.001.009.003.017.002.016.006.039.012.07.01.062.026.154.047.275.042.242.104.601.182 1.064.158.926.384 2.272.66 3.948.551 3.352 1.298 8.022 2.082 13.294 1.572 10.559 3.285 23.484 3.88 33.079l2.995-.186c-.604-9.732-2.335-22.766-3.907-33.334-.788-5.291-1.537-9.977-2.09-13.34-.277-1.681-.504-3.033-.662-3.964-.079-.466-.141-.826-.183-1.071-.021-.122-.038-.215-.048-.278-.006-.031-.01-.055-.013-.071-.001-.008-.002-.014-.003-.018 0-.002-.001-.004-.001-.005v-.001s0-.001-1.478.257zm6.769 53.414l8.171.646.236-2.991-8.17-.646-.237 2.991zm8.289-.85l1.463.331c0-.001 0-.001.001-.002 0-.001 0-.002.001-.004.001-.004.002-.01.004-.018.003-.015.008-.037.015-.067.013-.059.032-.147.058-.261.05-.229.124-.566.218-.998.186-.864.451-2.113.763-3.651.624-3.076 1.44-7.317 2.206-11.973 1.52-9.237 2.889-20.354 2.062-27.175l-2.978.36c.767 6.332-.515 17.035-2.044 26.328-.759 4.61-1.567 8.812-2.186 11.863-.31 1.525-.572 2.761-.756 3.615-.092.427-.165.759-.214.983-.025.112-.044.197-.057.254-.006.028-.011.05-.014.064-.002.007-.003.012-.004.016 0 .001-.001.003-.001.003v.001l1.463.331zm6.791-43.818c-.822-6.784-2.43-10.447-3.947-13.324-1.5-2.847-2.663-4.547-3.022-7.785l-2.982.332c.437 3.935 1.963 6.219 3.35 8.852 1.372 2.603 2.851 5.916 3.623 12.285l2.978-.36zm-6.969-21.109c-.186-1.668-.179-5.083-.048-9.383.131-4.259.379-9.276.653-14.077.274-4.8.573-9.378.803-12.756.115-1.688.213-3.077.282-4.043.035-.483.062-.86.081-1.117.009-.128.017-.226.021-.292.003-.033.005-.058.006-.074.001-.009.001-.015.001-.019.001-.002.001-.004.001-.005v-.001l-1.496-.111c-1.496-.112-1.496-.111-1.496-.111v.006c-.001.004-.001.011-.002.019-.001.017-.003.042-.005.076-.005.066-.013.165-.022.294-.019.258-.046.636-.081 1.121-.069.969-.168 2.361-.283 4.053-.231 3.385-.53 7.974-.805 12.789-.275 4.813-.525 9.859-.656 14.156-.13 4.256-.149 7.889.064 9.807l2.982-.332zm1.796-41.724l3.297-31.886-2.984-.308-3.297 31.885 2.984.309z" fill="#040404" mask="url(#d)"></path><path d="M430.51 223.119l.015.059.023.056h0l.001.001.002.005.009.022.037.089c.032.078.08.195.141.345.121.3.293.736.497 1.273.407 1.075.939 2.554 1.438 4.171.5 1.62.962 3.365 1.235 4.976.276 1.631.343 3.042.115 4.035-.506 2.204-1.782 5.501-3.132 8.171-.675 1.335-1.35 2.476-1.935 3.232-.286.37-.523.611-.699.741-.018-.099-.03-.245-.022-.451.021-.575.176-1.35.376-2.288.016-.077.033-.154.049-.231.182-.851.384-1.796.501-2.713.127-.996.166-2.034-.063-2.952-.411-1.647-1.094-3.11-1.667-4.154-.288-.525-.552-.948-.744-1.243-.096-.147-.175-.262-.231-.342-.027-.04-.05-.071-.065-.092l-.018-.026-.006-.007-.001-.002-.001-.001h0s0-.001-.604.445l.604-.446-1.328.638h-.001 0l.001.001v.003l.004.014.014.055c.013.049.032.122.055.216.047.187.112.457.188.786.151.658.339 1.546.491 2.47.153.93.264 1.872.27 2.646.003.388-.021.709-.07.955-.041.205-.089.308-.116.351-.03-.012-.076-.034-.139-.076-.289-.192-.677-.619-1.098-1.282-.827-1.302-1.604-3.23-1.91-5.023-.3-1.753.001-4.732.409-7.368.201-1.298.422-2.48.593-3.338.086-.429.158-.776.21-1.015.025-.12.046-.213.059-.275l.016-.071.004-.017.001-.004v-.002l.054-.236-.095-.223-.69.294c.69-.294.69-.294.689-.295v-.001l-.002-.004-.007-.017-.029-.068-.114-.267c-.099-.234-.246-.578-.432-1.017-.373-.878-.908-2.138-1.553-3.664-1.291-3.051-3.026-7.168-4.801-11.426-1.775-4.259-3.59-8.658-5.042-12.275-1.46-3.638-2.533-6.437-2.845-7.529-.648-2.272-1.429-5.135-2.049-7.431-.309-1.148-.578-2.154-.77-2.872-.096-.36-.172-.647-.225-.845l-.06-.227-.016-.058-.003-.015-.001-.004-.001-.001h0l-.725.192.725-.192-.04-.151-.096-.122-3.759-4.759-1.21-28.443c.687.501 1.6 1.214 2.566 2.098 2.031 1.857 4.225 4.404 5.143 7.284.678 2.127 1.609 5.676 2.628 9.559.44 1.674.895 3.411 1.354 5.123.758 2.828 1.523 5.581 2.23 7.843.697 2.228 1.364 4.072 1.942 5.012.408.666.81 1.262 1.199 1.839.117.173.232.343.346.514.499.747.989 1.511 1.494 2.45 1.01 1.876 2.101 4.492 3.396 9.085 1.301 4.615 3.123 11.739 4.622 17.718.749 2.988 1.416 5.686 1.896 7.638.241.976.434 1.765.567 2.31l.153.628.04.163.01.041.003.011v.003l.729-.177-.729.177zm-2.402 27.264c0-.001.004-.002.01-.003-.007.002-.01.003-.01.003z" fill="#F2CDAE" stroke="#040404" stroke-width="1.5"></path><mask id="e" fill="#fff"><path d="M379.598 127s-.453 7.852-3.003 9.295c-3.641 2.055-9.983 1.392-9.983 1.392s2.659 29.789 15.704 31.366c12.214 1.484 17.784-26.727 17.784-26.727s-6.594-1.887-7.709-3.33c-1.116-1.443-.436-11.476-.436-11.476"></path></mask><path d="M379.598 127s-.453 7.852-3.003 9.295c-3.641 2.055-9.983 1.392-9.983 1.392s2.659 29.789 15.704 31.366c12.214 1.484 17.784-26.727 17.784-26.727s-6.594-1.887-7.709-3.33c-1.116-1.443-.436-11.476-.436-11.476" fill="#F2CDAE"></path><path d="M376.595 136.295l.737 1.306.001-.001-.738-1.305zm-9.983 1.392l.156-1.492-1.812-.189.162 1.814 1.494-.133zm15.704 31.366l.181-1.489-.001-.001-.18 1.49zm17.784-26.727l1.472.291.267-1.354-1.326-.379-.413 1.442zM379.598 127l-1.498-.087v.002c0 .003 0 .007-.001.013 0 .013-.002.032-.003.058-.004.053-.01.132-.018.235-.016.205-.043.503-.082.866-.079.73-.209 1.709-.414 2.723-.206 1.023-.477 2.029-.822 2.834-.368.862-.711 1.236-.904 1.345l1.477 2.611c1.082-.612 1.752-1.761 2.186-2.777.458-1.073.778-2.301 1.004-3.421.228-1.129.37-2.203.456-2.991.042-.395.071-.722.09-.952.009-.115.015-.205.02-.269.002-.031.004-.056.005-.074 0-.008.001-.015.001-.02v-.007-.002c0-.001 0-.001-1.497-.087zm-3.741 7.988c-1.499.847-3.697 1.186-5.686 1.275-.964.043-1.824.026-2.442-.003-.308-.014-.554-.031-.72-.044-.084-.006-.147-.012-.187-.016-.021-.002-.036-.003-.045-.004-.004 0-.007-.001-.009-.001h-.001.001l-.156 1.492c-.156 1.492-.155 1.492-.155 1.492h.003c.001 0 .003.001.005.001.005 0 .011.001.019.002.015.001.036.003.063.006.054.005.13.011.228.019.195.015.473.034.816.05.685.031 1.638.051 2.714.003 2.093-.094 4.886-.45 7.027-1.659l-1.475-2.613zm-9.245 2.699c-1.494.133-1.494.134-1.494.134v.002c0 .001.001.003.001.005 0 .005.001.011.002.019.001.016.003.039.006.069.006.06.014.148.026.261.024.226.059.555.11.972.1.834.257 2.024.487 3.455.46 2.858 1.213 6.7 2.386 10.606 1.168 3.89 2.778 7.93 4.989 11.129 2.208 3.194 5.151 5.736 9.011 6.203l.36-2.979c-2.663-.321-4.943-2.094-6.903-4.93-1.956-2.829-3.457-6.532-4.584-10.286-1.123-3.738-1.85-7.442-2.297-10.219-.223-1.386-.375-2.536-.471-3.337-.048-.4-.082-.713-.104-.924-.011-.105-.019-.185-.024-.238-.002-.027-.004-.046-.005-.059-.001-.006-.001-.011-.002-.013v-.003-.001s0 .001-1.494.134zm15.523 32.855c3.718.452 6.801-1.396 9.217-4.024 2.408-2.619 4.33-6.187 5.817-9.685 1.495-3.518 2.594-7.068 3.317-9.728.363-1.333.633-2.449.813-3.235.09-.392.157-.702.203-.916.022-.107.04-.19.051-.246.006-.029.01-.051.014-.066.001-.008.002-.014.003-.018.001-.002.001-.004.001-.005v-.001c.001-.001.001-.001-1.471-.292s-1.472-.291-1.471-.291c-.001 0-.001 0-.001.001v.002c-.001.003-.001.007-.003.013-.002.012-.006.03-.011.055-.01.05-.026.126-.047.225-.042.199-.106.493-.192.869-.173.752-.433 1.829-.784 3.117-.702 2.583-1.759 5.993-3.183 9.342-1.433 3.37-3.194 6.576-5.265 8.829-2.064 2.244-4.258 3.366-6.646 3.076l-.362 2.978zm17.965-28.216l.413-1.442c-.001 0-.002-.001-.003-.001-.003-.001-.007-.002-.012-.003-.012-.004-.029-.009-.052-.015-.046-.014-.114-.034-.203-.06-.176-.053-.431-.13-.741-.228-.622-.195-1.458-.468-2.324-.784-.872-.318-1.745-.669-2.452-1.015-.354-.174-.641-.334-.857-.476-.234-.155-.3-.235-.292-.224l-2.373 1.835c.288.372.671.667 1.011.891.359.238.77.461 1.191.668.843.413 1.828.805 2.744 1.139.922.336 1.804.625 2.453.829.326.102.594.183.783.24.094.028.168.049.219.064.026.008.046.014.06.018.007.002.012.003.016.004.002.001.003.001.004.001l.001.001h.001l.413-1.442zm-6.523-4.248c.082.106.024.081-.058-.303-.07-.324-.128-.763-.172-1.303-.088-1.075-.108-2.411-.093-3.738.015-1.32.064-2.6.11-3.552.023-.475.045-.867.061-1.14.008-.136.015-.242.019-.314.002-.036.004-.063.005-.081.001-.009.001-.016.002-.02v-.005-.001l-1.496-.101-1.497-.101v.002c0 .001 0 .004-.001.006 0 .006 0 .013-.001.023-.001.02-.003.05-.006.088-.005.075-.011.186-.02.327-.017.282-.039.685-.062 1.173-.047.974-.098 2.293-.114 3.662-.015 1.361.004 2.804.103 4.016.049.603.121 1.185.228 1.686.094.44.259 1.045.619 1.511l2.373-1.835z" fill="#040404" mask="url(#e)"></path><mask id="f" fill="#fff"><path d="M374.204 115.088s-1.795-2.349-2.676 0c-.881 2.349 1.879 7.994 3.876 6.887"></path></mask><path d="M374.204 115.088s-1.795-2.349-2.676 0c-.881 2.349 1.879 7.994 3.876 6.887" fill="#F2CDAE"></path><path d="M374.204 115.088c1.192-.911 1.191-.912 1.191-.912s0-.001-.001-.001c0-.001-.001-.001-.001-.002-.001-.001-.002-.003-.004-.005-.002-.003-.006-.007-.009-.012-.007-.009-.016-.02-.027-.034-.022-.027-.051-.062-.086-.103-.07-.083-.17-.194-.292-.318-.231-.232-.607-.573-1.081-.822-.462-.243-1.243-.511-2.105-.186-.866.326-1.371 1.083-1.665 1.868l2.808 1.053c.146-.389.196-.22-.085-.114-.278.105-.445-.016-.348.035.085.045.212.144.346.279.059.06.107.114.138.15.016.018.026.031.031.037.003.004.004.005.004.005l-.002-.002c0-.001-.001-.002-.002-.002 0-.001 0-.001-.001-.002v-.001s-.001 0 1.191-.911zm-4.08-.527c-.363.966-.303 2.082-.114 3.04.196.997.573 2.026 1.051 2.928.468.883 1.093 1.76 1.848 2.35.755.589 1.97 1.102 3.222.408l-1.455-2.624c.254-.141.375.082.079-.149-.296-.231-.681-.705-1.043-1.389-.351-.664-.624-1.417-.759-2.105-.143-.726-.099-1.197-.021-1.406l-2.808-1.053z" fill="#040404" mask="url(#f)"></path><mask id="g" fill="#fff"><path d="M397.424 116.774s4.429-4.253 4.648-1.686c.218 2.567-5.101 8.498-6.972 8.33"></path></mask><path d="M397.424 116.774s4.429-4.253 4.648-1.686c.218 2.567-5.101 8.498-6.972 8.33" fill="#F2CDAE"></path><path d="M397.424 116.774l1.039 1.082h-.001c.001 0 .001 0 .001-.001.002-.001.004-.003.007-.006.006-.006.017-.016.031-.029.028-.026.071-.067.127-.118.111-.102.273-.247.467-.413.396-.34.902-.745 1.392-1.066.245-.16.463-.284.643-.366.195-.09.271-.096.25-.094-.038.003-.316.011-.581-.231-.244-.222-.232-.435-.222-.317l2.989-.254c-.044-.524-.219-1.166-.747-1.647-.549-.5-1.208-.581-1.692-.54-.856.072-1.708.563-2.282.939-.644.421-1.26.919-1.701 1.297-.224.192-.411.359-.542.48-.066.06-.118.109-.155.143-.018.018-.033.031-.043.041-.006.005-.01.009-.013.012-.001.002-.003.003-.004.004l-.001.001v.001c-.001 0-.001 0 1.038 1.082zm3.153-1.559c.015.179-.087.698-.557 1.564-.435.799-1.07 1.688-1.787 2.52-.717.833-1.474 1.559-2.127 2.052-.328.247-.596.411-.794.503-.227.106-.229.056-.078.07l-.268 2.988c.62.055 1.193-.143 1.614-.339.451-.21.903-.503 1.333-.828.864-.652 1.774-1.537 2.593-2.488.819-.951 1.589-2.015 2.149-3.045.524-.963 1.005-2.147.911-3.251l-2.989.254z" fill="#040404" mask="url(#g)"></path><path d="M375.029 107.547l.006-.447c3.27-5.614 6.376-8.2189 9.107-9.112 2.725-.8909 5.247-.1307 7.47 1.378 2.236 1.517 4.101 3.75 5.418 5.637.655.939 1.167 1.78 1.514 2.385.174.303.306.546.394.712.009.017.018.033.026.049-.014.103-.033.237-.056.401-.057.407-.14.991-.243 1.701-.208 1.421-.498 3.343-.83 5.35-.331 2.009-.703 4.096-1.073 5.85-.378 1.788-.735 3.135-1.021 3.732-.259.54-.948 1.319-1.994 2.209-1.023.869-2.31 1.78-3.664 2.593-1.356.813-2.759 1.517-4.011 1.981-1.285.477-2.296.656-2.919.552-.672-.112-1.513-.507-2.431-1.141-.905-.627-1.834-1.45-2.676-2.353-.843-.902-1.584-1.866-2.123-2.766-.55-.918-.846-1.697-.887-2.243-.106-1.399-.107-5.647-.08-9.594.014-1.963.034-3.836.051-5.219.009-.691.016-1.26.022-1.655z" fill="#F2CDAE" stroke="#040404" stroke-width="1.5"></path><mask id="h" fill="#fff"><path d="M400.108 179.539l-.805 6.677 2.307 6.485s-8.8 5.939-19.353 5.385c-10.553-.554-18.69-5.604-18.69-5.604l3.045-8.028v-4.53l17.952-2.617"></path></mask><path d="M400.108 179.539l-.805 6.677 2.307 6.485s-8.8 5.939-19.353 5.385c-10.553-.554-18.69-5.604-18.69-5.604l3.045-8.028v-4.53l17.952-2.617" fill="#F2CDAE"></path><path d="M399.303 186.216l-1.489-.18-.042.351.118.332 1.413-.503zm2.307 6.485l.839 1.243.964-.651-.39-1.095-1.413.503zm-38.043-.219l-1.402-.532-.439 1.156 1.05.651.791-1.275zm3.045-8.028l1.403.532.097-.257v-.275h-1.5zm0-4.53l-.216-1.484-1.284.187v1.297h1.5zm32.007-.565l-.805 6.677 2.978.36.806-6.678-2.979-.359zm-.729 7.36l2.307 6.484 2.826-1.005-2.307-6.485-2.826 1.006zm3.72 5.982c-.839-1.244-.839-1.244-.838-1.244v-.001l-.002.002c-.002.001-.006.004-.013.008-.013.009-.034.023-.063.042-.059.038-.15.095-.271.17-.243.15-.607.368-1.079.63-.946.523-2.32 1.22-4.013 1.901-3.398 1.367-8.01 2.641-12.995 2.379l-.157 2.996c5.568.292 10.632-1.127 14.272-2.591 1.826-.735 3.312-1.488 4.346-2.061.517-.286.923-.528 1.202-.701.14-.086.249-.156.324-.204.038-.025.068-.044.089-.058.01-.007.019-.013.025-.017.003-.002.006-.004.008-.005.001-.001.002-.001.002-.002.001 0 .001 0 .001-.001.001 0 .001 0-.838-1.243zm-19.274 3.887c-5.066-.266-9.574-1.613-12.828-2.905-1.623-.645-2.923-1.272-3.813-1.734-.445-.231-.786-.42-1.013-.55-.113-.065-.197-.115-.252-.148-.027-.016-.047-.028-.059-.035-.006-.004-.01-.006-.012-.008-.001 0-.002-.001-.002-.001v.001c.001 0 .001 0-.79 1.274-.791 1.275-.791 1.275-.79 1.275 0 .001 0 .001.001.001l.002.002c.002.001.004.002.007.004.006.003.014.008.023.014.02.012.047.028.082.049.07.042.17.101.3.175.26.149.637.358 1.12.609.965.502 2.359 1.173 4.089 1.86 3.454 1.371 8.291 2.825 13.778 3.113l.157-2.996zm-17.366-3.574l3.045-8.028-2.805-1.064-3.045 8.028 2.805 1.064zm3.142-8.56v-4.53h-3v4.53h3zm-1.283-3.045l17.951-2.618-.432-2.968-17.952 2.617.433 2.969z" fill="#040404" mask="url(#h)"></path><path d="M399.635 178.897c-.083.021-.185.047-.307.076-.388.093-.969.225-1.733.372-1.526.296-3.779.656-6.665.914-5.702.507-13.875.61-23.811-.996-.031-.063-.067-.134-.106-.214-.176-.356-.427-.872-.728-1.508-.602-1.273-1.401-3.022-2.186-4.93-.786-1.91-1.555-3.967-2.102-5.859-.553-1.914-.855-3.577-.769-4.732.091-1.229.509-3.34 1.104-5.861.591-2.505 1.344-5.366 2.086-8.071.742-2.703 1.473-5.246 2.017-7.112.273-.934.499-1.698.656-2.229.035-.117.067-.223.095-.316l5.509-.233c.003.032.007.066.01.1.058.523.151 1.268.294 2.162.285 1.785.771 4.178 1.576 6.585.802 2.4 1.936 4.864 3.542 6.755 1.619 1.905 3.746 3.258 6.489 3.319h.001c2.836.061 4.994-.984 6.602-2.586 1.589-1.582 2.619-3.681 3.294-5.725.677-2.051 1.012-4.098 1.179-5.625.066-.6.106-1.122.13-1.536l3.692 1.28c.025.08.053.172.084.275.126.411.307 1.006.525 1.741.439 1.469 1.031 3.498 1.646 5.736 1.237 4.494 2.553 9.767 2.931 13.057.361 3.139-.892 6.952-2.311 10.068-.702 1.54-1.428 2.876-1.979 3.827-.275.475-.506.853-.667 1.111-.036.057-.069.109-.098.155zm.267-.071s.001 0 0 0h0z" fill="#EC9AF1" stroke="#040404" stroke-width="1.5"></path><path d="M374.677 159.78c-.183-.727-.184-.727-.184-.727v.001h-.003l-.013.003-.048.013-.19.047c-.168.042-.415.104-.732.183-.634.157-1.55.381-2.674.652-2.247.541-5.326 1.265-8.652 1.997-6.683 1.471-14.27 2.953-18.164 3.08-3.79.124-7.677-1.312-10.235-3.547-2.55-2.228-3.669-5.117-2.353-8.037.315-.699.925-1.462 1.819-2.273.888-.805 2.02-1.625 3.332-2.443 2.624-1.637 5.904-3.232 9.238-4.677 5.145-2.231 10.337-4.07 13.361-5.142.899-.318 1.607-.569 2.065-.742 1.795-.678 3.379-.612 4.514-.378.528.109.957.253 1.262.375l-3.693 13.073-.293 1.037 1.074-.085-.059-.748.059.748h.003l.006-.001.028-.002.11-.009c.096-.007.237-.018.419-.032.362-.027.884-.066 1.518-.11 1.27-.089 2.992-.203 4.803-.3 1.812-.097 3.707-.178 5.324-.202 1.644-.025 2.927.011 3.56.126 1.335.242 4.683 1.444 7.818 2.89 1.557.717 3.026 1.479 4.136 2.188.556.355 1.003.685 1.323.978.34.312.452.509.474.582.016.057.03.234-.092.589-.116.337-.324.75-.62 1.22-.591.939-1.475 2.018-2.463 3.046-.986 1.027-2.053 1.977-2.996 2.665-.472.344-.899.612-1.259.791-.379.189-.609.24-.709.24-.099 0-.347-.057-.777-.263-.405-.193-.891-.479-1.436-.836-1.087-.713-2.348-1.673-3.554-2.644-1.203-.97-2.339-1.94-3.176-2.669-.417-.364-.76-.668-.997-.88-.119-.106-.212-.189-.274-.246l-.071-.064-.018-.016-.005-.004-.001-.001h0l-.505.554zm0 0l.505-.554-.298-.271-.39.098.183.727z" fill="#F2CDAE" stroke="#040404" stroke-width="1.5"></path><path d="M401.438 193.451h.004c.038.019.086.044.141.074.189.104.47.272.816.52.692.497 1.646 1.318 2.65 2.594 2.003 2.547 4.232 6.947 4.916 14.293.34 3.654.013 8.993-.687 14.992-.699 5.985-1.76 12.575-2.867 18.706-1.107 6.13-2.257 11.795-3.131 15.928-.437 2.066-.805 3.748-1.063 4.914-.114.515-.207.929-.275 1.231h-8.743l-6.859-34.47-.007-.033-.009-.033h-.001v-.003l-.004-.012-.014-.048c-.012-.044-.031-.109-.055-.195-.049-.173-.119-.428-.207-.758-.175-.659-.418-1.615-.688-2.796-.54-2.364-1.189-5.623-1.62-9.211-.432-3.592-.645-7.492-.325-11.143.322-3.66 1.174-7.006 2.823-9.539l.006-.01.006-.01h0l.001-.001.001-.002.01-.016c.01-.016.025-.04.046-.072.042-.065.107-.162.193-.285.174-.248.435-.6.779-1.011.69-.824 1.706-1.87 3.012-2.777 2.59-1.797 6.308-3.045 11.002-.896l.149.069z" fill="#EC9AF1" stroke="#040404" stroke-width="1.5"></path><path d="M378.493 338.734l.131-.128.058-.174.793-2.379 7.334-.682c.053.244.119.549.195.9.201.937.469 2.201.732 3.509.264 1.309.522 2.656.707 3.761.093.554.166 1.04.212 1.427.049.409.06.647.052.741-.027.326-.069.454-.1.517-.021.041-.058.096-.216.205-.131.091-.289.182-.518.314-.092.053-.196.113-.314.181-.391.229-.882.528-1.495.956-.605.422-1.534 1.174-2.619 2.05l-.074.06c-1.128.912-2.444 1.974-3.809 3.009-1.366 1.037-2.771 2.037-4.074 2.826-1.319.799-2.472 1.343-3.348 1.523-.843.174-1.888.071-3.02-.253-1.124-.321-2.28-.844-3.318-1.448-1.039-.605-1.932-1.275-2.539-1.874-.305-.301-.518-.565-.644-.775-.106-.176-.117-.258-.119-.267.025-.135.171-.398.618-.792.434-.382 1.029-.784 1.713-1.21.287-.179.615-.377.948-.578.398-.241.803-.485 1.155-.707.68-.429 1.346-.883 1.844-1.35.89-.836 3.321-3.179 5.525-5.308 1.102-1.065 2.15-2.079 2.922-2.826l.923-.894.255-.247.067-.065.017-.017.004-.004.001-.001h0c.001 0 .001 0-.521-.539l.522.539zM401.788 267.681c.021.029.038.055.053.076l2.728 11.374.01.101c.011.098.025.243.044.428.037.369.089.901.15 1.548.12 1.295.272 3.05.397 4.892.126 1.843.226 3.765.242 5.397.018 1.673-.056 2.928-.227 3.512-.133.454-.51.884-1.165 1.262-.65.375-1.502.652-2.428.828-.921.175-1.879.241-2.72.215-.859-.026-1.529-.148-1.907-.304-.057-.024-.224-.14-.48-.485-.24-.323-.503-.773-.779-1.334-.551-1.121-1.117-2.609-1.63-4.238-1.03-3.272-1.81-6.982-1.867-9.25-.057-2.317.219-5.842.515-8.819.147-1.481.298-2.816.412-3.78.057-.482.105-.871.139-1.14.004-.032.008-.063.012-.093 3.176-2.339 5.309-2.223 6.591-1.7.688.28 1.198.703 1.538 1.062.169.178.293.337.372.448z" fill="#0A2960" stroke="#040404" stroke-width="1.5"></path><path d="M374.656 109.991l-.201 2.377c-.077-.353-.157-.753-.231-1.193-.293-1.759-.488-4.13-.109-6.62.358-2.353 2.215-5.3148 4.955-7.6144 2.728-2.2896 6.192-3.8055 9.648-3.4626 3.435.3408 6.559 2.734 8.883 5.4708 1.152 1.3562 2.08 2.7662 2.726 3.9842.664 1.252.978 2.206 1.004 2.675.212 3.845-.95 6.948-2.173 9.033-.427.728-.859 1.326-1.237 1.784-.006-.948-.051-2.223-.201-3.637-.31-2.933-1.083-6.606-3.012-9.151-1.902-2.509-4.116-3.8007-6.521-4.1169-2.377-.3126-4.841.3415-7.242 1.5229-2.538 1.248-4.102 3.499-5.024 5.37-.464.942-.775 1.807-.971 2.439-.098.316-.167.575-.213.757-.023.091-.039.163-.051.213-.005.025-.009.045-.012.059l-.004.017-.001.006v.001l-.001.001s0 .001.736.148l-.736-.147-.008.042-.004.042z" fill="#FFB180" stroke="#040404" stroke-width="1.5"></path><path d="M423.002 345.444h-42.784c-3.902 0-7.064 3.162-7.064 7.064 0 3.901 3.162 7.064 7.064 7.064h42.784c3.902 0 7.064-3.163 7.064-7.064 0-3.902-3.162-7.064-7.064-7.064z" fill="#FFB180"></path><path d="M423.003 360.197h-42.786c-4.239 0-7.688-3.45-7.688-7.689 0-4.24 3.449-7.689 7.688-7.689h42.786c4.239 0 7.688 3.449 7.688 7.689 0 4.239-3.449 7.689-7.688 7.689zm-42.786-14.128c-3.549 0-6.438 2.888-6.438 6.439 0 3.55 2.889 6.439 6.438 6.439h42.786c3.549 0 6.438-2.889 6.438-6.439 0-3.551-2.889-6.439-6.438-6.439h-42.786z" fill="#040404"></path><path d="M351.522 152.238h21.615" stroke="#040404" stroke-width="1.5"></path><path fill-rule="evenodd" clip-rule="evenodd" d="M442.85 51.1h-107.6c-16.1 0-29.2 12.8-29.2 28.5l-.2 281c0 15.7 13.1 28.5 29.2 28.5l107.7.1c16.1 0 29.2-12.8 29.2-28.5l.2-281c-.1-15.8-13.2-28.6-29.3-28.6zm21 305.4c0 13.2-10.8 23.9-24 23.9l-101.9-.1c-13.2 0-23.9-10.8-23.9-24l.2-272.7c0-13.2 10.8-23.9 24-23.9h24.3c.3.4.6.8.9 1.1l4.2 4.2c1.4 1.4 3.1 2.1 5 2.1h33.2c1.9 0 3.6-.7 5-2.1l4.2-4.2c.4-.4.7-.7.9-1.1h24.3c13.2 0 23.9 10.8 23.9 24l-.3 272.8z" fill="#FDEFCD" stroke="#040404" stroke-width="1.5" stroke-miterlimit="10" stroke-linecap="round" stroke-linejoin="round"></path><path d="M442.366 177.187l.227-.187-.396-.482.396.482h.001l.001-.002.007-.004.022-.019.084-.069c.07-.058.167-.139.275-.23.211-.177.474-.402.649-.564l.005-.005.006-.006c1.006-.98 2.305-1.603 3.699-1.774l.011-.001.011-.002c.993-.159 2.01-.035 2.935.357.926.392 1.722 1.037 2.297 1.861l.008.011.008.01c.648.85 1.042 1.867 1.136 2.932.065.901-.062 1.805-.373 2.654-.481 1.287-1.173 2.484-2.049 3.543h0l-.003.004c-1.166 1.436-2.472 2.752-3.898 3.93l-.001.002c-1.721 1.432-3.518 2.772-5.382 4.013-2.365-1.636-4.6-3.454-6.683-5.437h0c-1.278-1.215-2.401-2.584-3.342-4.075h0l-.003-.005c-.611-.945-1.039-1.997-1.262-3.1h0l-.002-.006c-.241-1.13-.133-2.306.31-3.373.444-1.066 1.202-1.972 2.173-2.598l.009-.005.009-.007c1.069-.741 2.381-1.047 3.668-.854l.012.001.011.002c1.486.167 2.868.842 3.914 1.911h0l.007.007c.27.267.537.539.806.813l.018.018.02.017c.105.091.233.153.37.18l.289.057zM454.532 224.396c0 4.535-2.986 7.915-6.111 10.206-1.552 1.138-3.107 1.984-4.277 2.546-.409.196-.769.357-1.064.483.01-.345.022-.75.031-1.155.012-.527.021-1.06.019-1.463 0-.199-.003-.377-.011-.509-.003-.062-.009-.134-.019-.198-.004-.026-.015-.087-.039-.153-.011-.03-.04-.103-.1-.179-.058-.073-.22-.24-.495-.24-7.03 0-11.841-4.18-11.841-9.615 0-3.2 1.283-5.815 3.411-7.629 2.136-1.821 5.158-2.863 8.66-2.824 3.504.039 6.463 1.133 8.538 2.992 2.068 1.852 3.298 4.498 3.298 7.738z" fill="#fff" stroke="#040404" stroke-width="1.24895"></path><path d="M438.192 224.211c0 .428-.347.774-.775.774-.427 0-.774-.346-.774-.774 0-.428.347-.774.774-.774.428 0 .775.346.775.774zM443.354 224.211c0 .428-.347.774-.774.774-.428 0-.775-.346-.775-.774 0-.428.347-.774.775-.774.427 0 .774.346.774.774zM448.516 224.211c0 .428-.346.774-.774.774-.428 0-.774-.346-.774-.774 0-.428.346-.774.774-.774.428 0 .774.346.774.774z" fill="#040404" stroke="#040404" stroke-width="1.63408"></path><path d="M444.012 278.368l.066-5.944.007-.625-.625-.007-4.53-.05c-1.673-.05-3.332.329-4.818 1.101-1.388.721-2.582 1.764-3.484 3.038l.02-1.732s0 0 0 0c.031-2.582 1.085-5.046 2.931-6.851 1.846-1.806 4.333-2.805 6.916-2.779 0 0 0 0 0 0l3.049.033.625.007.007-.624.065-5.932 10.062 10.297-10.291 10.068z" fill="#fff" stroke="#040404" stroke-width="1.24895"></path></svg>