<svg xmlns="http://www.w3.org/2000/svg" width="780" height="440" viewBox="0 0 780 440" fill="none"><g clip-path="url(#clip0_0_3)"><path d="M805.32 -17.7H-42.11V465.4H805.32V-17.7Z" fill="url(#paint0_linear_0_3)"></path><path d="M182.22 220.44C203.328 220.44 220.44 203.328 220.44 182.22C220.44 161.112 203.328 144 182.22 144C161.112 144 144 161.112 144 182.22C144 203.328 161.112 220.44 182.22 220.44Z" fill="white" stroke="#162020" stroke-width="1.5" stroke-linecap="round" stroke-linejoin="round"></path><path d="M196.913 186.35C196.913 186.249 196.913 186.149 196.913 186.06C196.913 181.887 196.913 177.713 196.913 173.539C196.913 173.472 196.913 173.394 196.913 173.328C196.902 172.537 196.379 172.07 195.6 172.248C194.888 172.404 194.198 172.638 193.508 172.849C191.315 173.528 189.122 174.229 186.941 174.908C184.392 175.709 181.832 176.489 179.295 177.312C178.516 177.568 177.87 178.047 177.547 178.837C177.458 179.071 177.414 179.338 177.414 179.583C177.414 184.936 177.414 190.301 177.414 195.654C177.414 197.168 176.902 198.492 175.967 199.661C174.52 201.464 172.606 202.466 170.357 202.877C168.933 203.133 167.508 203.122 166.106 202.688C164.715 202.265 163.568 201.52 162.834 200.229C162.277 199.238 162.155 198.158 162.366 197.057C162.7 195.276 163.724 193.907 165.104 192.794C166.662 191.547 168.443 190.835 170.424 190.635C171.437 190.534 172.439 190.534 173.418 190.824C173.685 190.902 173.941 191.013 174.219 191.113V190.813C174.219 184.636 174.219 178.47 174.219 172.293C174.219 170.979 174.698 169.855 175.511 168.853C176.379 167.796 177.514 167.228 178.805 166.861C180.853 166.271 182.89 165.626 184.926 165.002C187.353 164.257 189.79 163.511 192.216 162.777C193.508 162.387 194.787 161.986 196.079 161.597C196.869 161.352 197.67 161.296 198.438 161.63C199.607 162.142 200.119 163.099 200.119 164.335C200.13 168.686 200.119 173.038 200.119 177.39C200.119 181.742 200.096 186.149 200.119 190.534C200.13 192.126 199.64 193.517 198.65 194.73C197.581 196.044 196.223 196.945 194.643 197.535C193.307 198.036 191.927 198.225 190.514 198.136C189.067 198.047 187.72 197.669 186.551 196.778C184.67 195.331 184.125 193.05 185.082 190.835C185.761 189.266 186.908 188.108 188.343 187.229C190.18 186.105 192.183 185.648 194.32 185.782C194.754 185.804 195.199 185.882 195.622 185.982C196.045 186.082 196.446 186.227 196.88 186.372L196.913 186.35Z" fill="#CE3665" stroke="#162020" stroke-width="1.5" stroke-miterlimit="10"></path><path d="M565 130C585.435 130 602 146.789 602 167.5C602 188.211 585.435 205 565 205C544.566 205 528 188.211 528 167.5C528 146.789 544.566 130 565 130Z" fill="#CE3665" stroke="black" stroke-width="1.5" stroke-miterlimit="10"></path><path d="M584.5 163.3H574.5V171.5H584.5C586 171.5 587.3 172.7 587.3 174.3C587.3 175.9 586.1 177.1 584.5 177.1H574.5V187.2C574.5 188.7 573.3 190 571.7 190C570.9 190 570.2 189.7 569.7 189.2C569.2 188.7 568.9 188 568.9 187.2V177H560.7V187.2C560.7 188.7 559.5 190 557.9 190C557.1 190 556.4 189.7 555.9 189.2C555.4 188.7 555.1 188 555.1 187.2V177H544.8C543.3 177 542 175.8 542 174.2C542 173.4 542.3 172.7 542.8 172.2C543.3 171.7 544 171.4 544.8 171.4H555.1V163.2H544.8C543.3 163.2 542 162 542 160.4C542 159.6 542.3 158.9 542.8 158.4C543.3 157.9 544 157.6 544.8 157.6H555.1V147.4C555.1 145.9 556.3 144.6 557.9 144.6C559.5 144.6 560.7 145.8 560.7 147.4V157.7H568.9V147.5C568.9 146 570.1 144.7 571.7 144.7C573.3 144.7 574.5 145.9 574.5 147.5V157.7H584.5C586 157.7 587.3 158.9 587.3 160.5C587.3 162.1 586 163.3 584.5 163.3ZM568.9 163.3H560.7V171.5H568.9V163.3Z" fill="white" stroke="#162020" stroke-width="1.5" stroke-miterlimit="10"></path><path d="M226.597 236.869C226.597 236.869 227.249 236.334 227.557 236.048C228.606 235.026 229.962 234.376 231.416 234.197C232.469 234.028 233.549 234.16 234.532 234.576C235.514 234.993 236.359 235.677 236.971 236.552C237.656 237.451 238.072 238.526 238.171 239.652C238.239 240.595 238.106 241.542 237.781 242.429C237.3 243.715 236.609 244.912 235.734 245.97C234.6 247.365 233.332 248.645 231.946 249.79C230.22 251.227 228.416 252.566 226.541 253.801C226.48 253.842 226.441 253.862 226.363 253.81C223.995 252.192 221.763 250.387 219.686 248.41C218.435 247.221 217.337 245.882 216.416 244.423C215.795 243.462 215.36 242.393 215.133 241.272C214.878 240.08 214.992 238.839 215.46 237.713C215.928 236.588 216.728 235.632 217.753 234.972C218.894 234.181 220.293 233.855 221.667 234.06C223.215 234.234 224.656 234.938 225.746 236.052C226.006 236.309 226.263 236.57 226.519 236.831C226.541 236.85 226.568 236.863 226.597 236.869Z" fill="#7DEAD5" stroke="#162020" stroke-width="1.5" stroke-miterlimit="10"></path><path d="M503.88 74.32H276.12V368.36H503.88V74.32Z" fill="#08C4B2" stroke="#162020" stroke-width="1.5" stroke-miterlimit="10" stroke-linecap="round" stroke-linejoin="round"></path><path d="M288.83 90.74H491.17V312.97L447.27 357.57H288.83V90.74Z" fill="white" stroke="#162020" stroke-width="1.5" stroke-miterlimit="10" stroke-linejoin="round"></path><path d="M447.2 313.54H491.17L447.2 357.5V313.54Z" fill="white" stroke="#162020" stroke-width="1.5" stroke-miterlimit="10" stroke-linejoin="round"></path><path d="M345.22 152.76H457.85" stroke="#162020" stroke-width="1.5" stroke-miterlimit="10" stroke-linejoin="round"></path><path d="M345.22 166.1H419.78" stroke="#162020" stroke-width="1.5" stroke-miterlimit="10" stroke-linejoin="round"></path><path d="M345.22 191.41H442.54" stroke="#162020" stroke-width="1.5" stroke-miterlimit="10" stroke-linejoin="round"></path><path d="M345.22 204.75H398.2" stroke="#162020" stroke-width="1.5" stroke-miterlimit="10" stroke-linejoin="round"></path><path d="M345.22 230.06H457.85" stroke="#162020" stroke-width="1.5" stroke-miterlimit="10" stroke-linejoin="round"></path><path d="M345.22 243.4H438.23" stroke="#162020" stroke-width="1.5" stroke-miterlimit="10" stroke-linejoin="round"></path><path d="M345.22 268.71H439.01" stroke="#162020" stroke-width="1.5" stroke-miterlimit="10" stroke-linejoin="round"></path><path d="M345.22 282.06H415.07" stroke="#162020" stroke-width="1.5" stroke-miterlimit="10" stroke-linejoin="round"></path><path d="M345.22 307.37H457.85" stroke="#162020" stroke-width="1.5" stroke-miterlimit="10" stroke-linejoin="round"></path><path d="M345.22 320.71H433.13" stroke="#162020" stroke-width="1.5" stroke-miterlimit="10" stroke-linejoin="round"></path><path d="M314.26 115.99H465.74" stroke="#162020" stroke-width="1.5" stroke-miterlimit="10" stroke-linecap="round" stroke-linejoin="round"></path><path d="M431.06 79.79H348.94V97.18H431.06V79.79Z" fill="#B0B6B7" stroke="#162020" stroke-width="1.5" stroke-miterlimit="10" stroke-linecap="round" stroke-linejoin="round"></path><path d="M282.53 144.06C308.78 144.06 330.06 122.78 330.06 96.53C330.06 70.2799 308.78 49 282.53 49C256.28 49 235 70.2799 235 96.53C235 122.78 256.28 144.06 282.53 144.06Z" fill="#040404" stroke="black" stroke-width="1.5" stroke-miterlimit="10" stroke-linejoin="round"></path><path d="M284.128 69H293.351C293.474 69.49 293.474 70.1025 293.474 70.5925C293.72 72.675 294.457 74.5126 295.564 76.3501C296.425 77.6976 297.655 78.5551 299.13 78.9226C300.606 79.2901 302.081 79.2901 303.68 79.2901C304.787 79.2901 305.893 79.2901 307 79.2901V88.4777C306.385 88.4777 305.893 88.4777 305.278 88.4777C303.803 88.4777 302.327 88.4777 300.852 88.3552C299.007 88.2327 297.286 87.7427 295.687 87.0077C294.949 86.6402 294.211 86.2727 293.351 85.9052V86.2727C293.351 93.1328 293.351 99.9929 293.351 106.853C293.351 109.548 292.736 112.121 291.506 114.571C289.662 118.123 286.833 120.818 283.144 122.533C280.316 123.758 277.488 124.248 274.414 123.881C270.848 123.513 267.651 122.166 264.945 119.838C262.609 117.756 260.888 115.306 259.904 112.366C259.043 109.915 258.797 107.343 259.166 104.77C259.658 100.483 261.625 97.0528 264.7 94.1128C266.913 92.1528 269.495 90.8053 272.446 90.1927C274.045 89.8252 275.644 89.7027 277.242 89.8252C277.857 89.8252 278.472 89.8252 279.087 89.8252V99.0128C278.472 99.0128 277.734 99.0128 277.119 99.0128C276.135 99.0128 275.152 99.0129 274.168 99.2579C270.848 100.115 268.389 102.933 268.143 106.363C267.897 109.548 269.249 112.12 271.955 113.836C273.061 114.571 274.168 114.938 275.398 114.938C277.98 115.183 280.07 114.326 281.915 112.611C283.513 111.018 284.251 108.935 284.251 106.608C284.251 105.015 284.251 103.3 284.251 101.708C284.251 100.115 284.251 98.5228 284.251 96.9303C284.251 95.3378 284.251 93.7453 284.251 92.1528C284.251 90.5603 284.251 88.9677 284.251 87.3752C284.251 85.7827 284.251 84.1902 284.251 82.5977C284.251 81.0051 284.251 79.4126 284.251 77.8201C284.251 76.2276 284.251 74.6351 284.251 73.0426C284.251 71.94 284.251 70.715 284.251 69.6125C284.128 69.245 284.128 69.1225 284.128 69Z" fill="white"></path><path d="M327.66 164.85C331.741 164.85 335.05 161.541 335.05 157.46C335.05 153.379 331.741 150.07 327.66 150.07C323.579 150.07 320.27 153.379 320.27 157.46C320.27 161.541 323.579 164.85 327.66 164.85Z" fill="white" stroke="#162020" stroke-width="1.5" stroke-miterlimit="10" stroke-linejoin="round"></path><path d="M323.48 155.81L327.52 159.85L336.19 147.74" stroke="#182020" stroke-width="1.5" stroke-miterlimit="10" stroke-linecap="round" stroke-linejoin="round"></path><path d="M327.66 203.3C331.741 203.3 335.05 199.991 335.05 195.91C335.05 191.829 331.741 188.52 327.66 188.52C323.579 188.52 320.27 191.829 320.27 195.91C320.27 199.991 323.579 203.3 327.66 203.3Z" fill="white" stroke="#162020" stroke-width="1.5" stroke-miterlimit="10" stroke-linejoin="round"></path><path d="M323.48 194.26L327.52 198.3L336.19 186.19" stroke="#182020" stroke-width="1.5" stroke-miterlimit="10" stroke-linecap="round" stroke-linejoin="round"></path><path d="M327.66 244.24C331.741 244.24 335.05 240.931 335.05 236.85C335.05 232.769 331.741 229.46 327.66 229.46C323.579 229.46 320.27 232.769 320.27 236.85C320.27 240.931 323.579 244.24 327.66 244.24Z" fill="white" stroke="#162020" stroke-width="1.5" stroke-miterlimit="10" stroke-linejoin="round"></path><path d="M323.48 235.2L327.52 239.23L336.19 227.13" stroke="#182020" stroke-width="1.5" stroke-miterlimit="10" stroke-linecap="round" stroke-linejoin="round"></path><path d="M327.66 279.87C331.741 279.87 335.05 276.561 335.05 272.48C335.05 268.399 331.741 265.09 327.66 265.09C323.579 265.09 320.27 268.399 320.27 272.48C320.27 276.561 323.579 279.87 327.66 279.87Z" fill="white" stroke="#162020" stroke-width="1.5" stroke-miterlimit="10" stroke-linejoin="round"></path><path d="M327.66 319.28C331.741 319.28 335.05 315.971 335.05 311.89C335.05 307.809 331.741 304.5 327.66 304.5C323.579 304.5 320.27 307.809 320.27 311.89C320.27 315.971 323.579 319.28 327.66 319.28Z" fill="white" stroke="#162020" stroke-width="1.5" stroke-miterlimit="10" stroke-linejoin="round"></path><path d="M181.374 391.739C181.374 391.739 177.974 385.249 179.964 380.159C181.924 375.159 211.684 328.119 211.684 328.119L214.404 330.249L184.054 379.859C182.544 382.329 182.314 385.459 183.504 388.469C183.634 388.789 183.714 388.969 183.714 388.969L181.374 391.739Z" fill="#E9F8FF" stroke="black" stroke-width="1.5" stroke-miterlimit="10" stroke-linejoin="round"></path><path d="M300.334 225.199L304.634 228.099L310.094 212.939L309.064 212.239L308.044 211.549L296.034 222.309L300.334 225.199Z" fill="#2B87D3" stroke="black" stroke-width="1.5" stroke-miterlimit="10" stroke-linejoin="round"></path><path d="M309.714 211.199L309.794 211.249C310.334 211.619 310.484 212.349 310.114 212.899L310.094 212.929L308.044 211.549L308.064 211.519C308.434 210.979 309.174 210.839 309.714 211.199Z" fill="#2B87D3" stroke="black" stroke-width="1.5" stroke-miterlimit="10" stroke-linejoin="round"></path><path d="M179.564 394.389C178.624 395.959 178.884 397.849 180.164 398.709L182.414 400.229L184.664 401.749C185.944 402.609 187.804 402.139 188.894 400.679L250.834 318.219L241.774 312.119L232.714 306.019L179.564 394.389Z" fill="#2B87D3" stroke="black" stroke-width="1.5" stroke-miterlimit="10" stroke-linejoin="round"></path><path d="M295.244 222.749C296.044 221.689 297.384 221.349 298.314 221.979L301.194 223.919L304.074 225.859C305.004 226.489 305.194 227.859 304.514 228.989L250.894 318.129L241.834 312.029L232.774 305.929L295.244 222.749Z" fill="#E9F8FF" stroke="black" stroke-width="1.5" stroke-miterlimit="10" stroke-linejoin="round"></path><path d="M598.03 228C612.406 228 624.06 239.654 624.06 254.03C624.06 268.406 612.406 280.06 598.03 280.06C583.654 280.06 572 268.406 572 254.03C572 239.654 583.654 228 598.03 228Z" fill="#2B87D3" stroke="black" stroke-width="1.5" stroke-miterlimit="10"></path><path d="M612.027 254.131L589.329 267.236V241.026L612.027 254.131Z" fill="#E9F8FF" stroke="#162020" stroke-width="1.5" stroke-miterlimit="10"></path></g><defs><linearGradient id="paint0_linear_0_3" x1="529.938" y1="-34.6524" x2="73.1516" y2="744.792" gradientUnits="userSpaceOnUse"><stop stop-color="#FADEFF"></stop><stop offset="0.83" stop-color="#E997EE"></stop></linearGradient><clipPath id="clip0_0_3"><rect width="780" height="440" fill="white"></rect></clipPath></defs></svg>