<svg xmlns="http://www.w3.org/2000/svg" viewBox="0 0 780 440"><rect x="-0.296" width="780" height="440" fill="#7dead5"/><rect x="271.616" y="62.148" width="207.768" height="284.703" fill="#9180f4"/><path d="M479.384,347.6H271.616a.75.75,0,0,1-.75-.75V62.148a.75.75,0,0,1,.75-.75H479.384a.75.75,0,0,1,.75.75v284.7A.75.75,0,0,1,479.384,347.6Zm-207.018-1.5H478.634V62.9H272.366Z" fill="#162020"/><rect x="286.616" y="77.148" width="207.768" height="284.703" fill="#9180f4"/><path d="M494.384,362.6H286.616a.75.75,0,0,1-.75-.75V77.148a.75.75,0,0,1,.75-.75H494.384a.75.75,0,0,1,.75.75v284.7A.75.75,0,0,1,494.384,362.6Zm-207.018-1.5H493.634V77.9H287.366Z" fill="#162020"/><rect x="300.616" y="93.148" width="207.768" height="284.703" fill="#c1c1f7"/><path d="M508.384,378.6H300.616a.75.75,0,0,1-.75-.75V93.148a.75.75,0,0,1,.75-.75H508.384a.75.75,0,0,1,.75.75v284.7A.75.75,0,0,1,508.384,378.6Zm-207.018-1.5H507.634V93.9H301.366Z" fill="#162020"/><circle cx="326.735" cy="128.57" r="11.73" fill="#fff"/><path d="M326.735,141.051a12.48,12.48,0,1,1,12.481-12.481A12.495,12.495,0,0,1,326.735,141.051Zm0-23.46a10.98,10.98,0,1,0,10.981,10.979A10.993,10.993,0,0,0,326.735,117.591Z" fill="#162020"/><path d="M406.7,129.218H347.735a.75.75,0,1,1,0-1.5H406.7a.75.75,0,1,1,0,1.5Z" fill="#162020"/><path d="M494.659,311.082c0,9.192-12.105,13.472-12.105,13.472s.144-4,.039-4c-6.9,0-11.852-4.138-11.852-9.735,0-6.429,5.18-10.609,12.078-10.532S494.659,304.6,494.659,311.082Z" fill="#fff"/><path d="M482.554,325.3a.75.75,0,0,1-.75-.778c.043-1.187.076-2.493.078-3.239-6.933-.277-11.891-4.595-11.891-10.471a10.619,10.619,0,0,1,3.126-7.736,13.324,13.324,0,0,1,9.71-3.546c7.408.082,12.582,4.83,12.582,11.548,0,9.611-12.091,14-12.605,14.179A.743.743,0,0,1,482.554,325.3Zm.077-24.271a11.856,11.856,0,0,0-8.459,3.113,9.153,9.153,0,0,0-2.681,6.67c0,5.206,4.669,8.985,11.1,8.985a.766.766,0,0,1,.544.231c.236.245.3.316.205,3.387,2.849-1.263,10.566-5.332,10.566-12.337,0-5.936-4.46-9.975-11.1-10.048Z" fill="#162020"/><circle cx="403.977" cy="240.031" r="43.139" fill="#fff"/><path d="M403.978,283.92a43.889,43.889,0,1,1,43.888-43.889A43.939,43.939,0,0,1,403.978,283.92Zm0-86.278a42.389,42.389,0,1,0,42.388,42.389A42.436,42.436,0,0,0,403.978,197.642Z" fill="#162020"/><path d="M482.691,273.56s.652-.535.96-.821a6.7,6.7,0,0,1,3.859-1.851,5.681,5.681,0,0,1,5.555,2.355,5.967,5.967,0,0,1,1.2,3.1,6.657,6.657,0,0,1-.39,2.777,12.318,12.318,0,0,1-2.047,3.541,27.185,27.185,0,0,1-3.788,3.82,60.319,60.319,0,0,1-5.405,4.011c-.061.041-.1.061-.178.009a53.315,53.315,0,0,1-6.677-5.4,20.909,20.909,0,0,1-3.27-3.987,9.171,9.171,0,0,1-1.283-3.151,6,6,0,0,1,2.62-6.3,5.453,5.453,0,0,1,3.914-.912,6.762,6.762,0,0,1,4.079,1.992c.26.257.517.518.773.779A.169.169,0,0,0,482.691,273.56Z" fill="#7dead5"/><path d="M482.54,291.283a.9.9,0,0,1-.519-.174,53.76,53.76,0,0,1-6.764-5.476,21.413,21.413,0,0,1-3.386-4.133,9.817,9.817,0,0,1-1.38-3.408,6.777,6.777,0,0,1,2.92-7.042A6.2,6.2,0,0,1,477.849,270a7.524,7.524,0,0,1,4.521,2.2c.118.116.235.233.353.352.151-.13.307-.265.417-.367a7.474,7.474,0,0,1,4.284-2.047,6.385,6.385,0,0,1,6.243,2.653,6.732,6.732,0,0,1,1.348,3.484,7.3,7.3,0,0,1-.429,3.088,12.891,12.891,0,0,1-2.167,3.759,27.587,27.587,0,0,1-3.891,3.926,59.909,59.909,0,0,1-5.472,4.061A.92.92,0,0,1,482.54,291.283Zm.349-1.4,0,0Zm-5.92-18.435a4.476,4.476,0,0,0-2.681.817,5.236,5.236,0,0,0-2.32,5.563,8.4,8.4,0,0,0,1.186,2.893,19.93,19.93,0,0,0,3.156,3.841,50.715,50.715,0,0,0,6.242,5.082,57,57,0,0,0,5.006-3.737,26.232,26.232,0,0,0,3.685-3.713,11.437,11.437,0,0,0,1.927-3.324,5.869,5.869,0,0,0,.351-2.467,5.254,5.254,0,0,0-1.059-2.715,4.919,4.919,0,0,0-4.866-2.057,5.917,5.917,0,0,0-3.435,1.656c-.319.3-1,.851-1,.851a.751.751,0,0,1-.619.156,1.052,1.052,0,0,1-.469-.257l-.074-.075c-.228-.232-.456-.463-.688-.692a5.973,5.973,0,0,0-3.636-1.781A6.455,6.455,0,0,0,476.969,271.45Z" fill="#162020"/><path d="M484.049,358.008a.465.465,0,0,1-.189-.04.5.5,0,0,1-.3-.461l.065-5.877-4.313-.048a8.732,8.732,0,0,0-7.564,3.931.5.5,0,0,1-.914-.272l.022-1.971a9.863,9.863,0,0,1,9.962-9.743l2.9.032.065-5.876a.5.5,0,0,1,.851-.341l9.8,10.029a.5.5,0,0,1-.008.7l-10.017,9.8A.492.492,0,0,1,484.049,358.008Z" fill="#7dead5"/><path d="M484.053,358.759a.043.043,0,0,0-.016,0,1.272,1.272,0,0,1-.464-.1,1.248,1.248,0,0,1-.764-1.162l.057-5.129-3.564-.039h-.1a7.976,7.976,0,0,0-6.821,3.585,1.234,1.234,0,0,1-1.406.524,1.25,1.25,0,0,1-.89-1.209l.021-1.969a10.618,10.618,0,0,1,10.6-10.487h.12l2.147.025.056-5.127a1.246,1.246,0,0,1,2.137-.857l9.8,10.03a1.248,1.248,0,0,1-.022,1.762L484.926,358.4A1.239,1.239,0,0,1,484.053,358.759Zm-4.853-7.928h.119l4.314.048a.75.75,0,0,1,.741.759l-.059,5.263,9.4-9.189-9.191-9.408-.058,5.262a.776.776,0,0,1-.759.742l-2.9-.033h-.1a9.115,9.115,0,0,0-9.1,9l-.012,1.154A9.53,9.53,0,0,1,479.2,350.831Z" fill="#162020"/><polygon points="428.714 240.031 391.609 218.609 391.609 261.453 428.714 240.031" fill="#7dead5"/><path d="M391.609,262.2a.749.749,0,0,1-.75-.75V218.608a.75.75,0,0,1,1.125-.649l37.105,21.423a.75.75,0,0,1,0,1.3L391.984,262.1A.747.747,0,0,1,391.609,262.2Zm.75-42.3v40.247l34.855-20.123Z" fill="#162020"/><circle cx="477.793" cy="310.905" r="1.513" fill="#162020"/><circle cx="482.7" cy="310.905" r="1.513" fill="#162020"/><circle cx="487.608" cy="310.905" r="1.513" fill="#162020"/><path d="M615.287,128.468a38.454,38.454,0,0,1-58.976,32.517,1.2,1.2,0,0,0-1.112-.124L539,166.3l5.44-16.2a1.2,1.2,0,0,0-.124-1.113,37.794,37.794,0,0,1-5.934-20.524,38.452,38.452,0,1,1,76.9,0Z" fill="#9180f4"/><path d="M576.835,167.67a39.079,39.079,0,0,1-20.925-6.052.467.467,0,0,0-.474-.046l-16.2,5.441a.751.751,0,0,1-.95-.951l5.44-16.2a.453.453,0,0,0-.037-.457,38.742,38.742,0,0,1-6.06-20.94,39.2,39.2,0,1,1,39.2,39.2Zm-21.171-7.641a1.9,1.9,0,0,1,1.064.331,37.693,37.693,0,1,0-11.778-11.772,1.932,1.932,0,0,1,.2,1.753l-4.961,14.769,14.766-4.96A2.219,2.219,0,0,1,555.664,160.029Z" fill="#162020"/><path d="M579.943,124.887a9.533,9.533,0,1,0-9.533-9.533A9.531,9.531,0,0,0,579.943,124.887Zm16,22.227h-32v-2.105a16,16,0,0,1,16-16h0a16,16,0,0,1,16,16Z" fill="#fff"/><path d="M595.945,147.863h-32a.75.75,0,0,1-.75-.75v-2.1a16.753,16.753,0,0,1,33.5,0v2.1A.75.75,0,0,1,595.945,147.863Zm-31.255-1.5h30.5v-1.354a15.253,15.253,0,0,0-30.5,0Zm15.252-20.726a10.283,10.283,0,1,1,10.283-10.283A10.294,10.294,0,0,1,579.942,125.637Zm0-19.065a8.783,8.783,0,1,0,8.783,8.782A8.792,8.792,0,0,0,579.942,106.572Z"/><path d="M556.421,133.655a.75.75,0,0,1-.75-.75V120.673a.75.75,0,0,1,1.5,0v12.232A.75.75,0,0,1,556.421,133.655Z" fill="#162020"/><path d="M562.537,127.539H550.3a.75.75,0,0,1,0-1.5h12.232a.75.75,0,0,1,0,1.5Z" fill="#162020"/><path d="M163.22,280.616A38.452,38.452,0,0,0,222.2,313.133a1.205,1.205,0,0,1,1.113-.124l16.2,5.441-5.44-16.2a1.2,1.2,0,0,1,.123-1.113,37.787,37.787,0,0,0,5.935-20.524,38.452,38.452,0,0,0-76.9,0Z" fill="#9180f4"/><path d="M201.672,319.817a39.2,39.2,0,1,1,39.2-39.2,38.731,38.731,0,0,1-6.053,20.929.464.464,0,0,0-.044.472l5.44,16.193a.751.751,0,0,1-.95.95l-16.2-5.439a.456.456,0,0,0-.458.036A39.086,39.086,0,0,1,201.672,319.817Zm0-76.9A37.7,37.7,0,1,0,221.794,312.5a1.913,1.913,0,0,1,1.752-.2l14.767,4.959-4.959-14.766a1.938,1.938,0,0,1,.21-1.767,37.228,37.228,0,0,0,5.809-20.109A37.744,37.744,0,0,0,201.672,242.915Z" fill="#162020"/><path d="M204.779,277.035a9.533,9.533,0,1,0-9.532-9.532A9.531,9.531,0,0,0,204.779,277.035Zm16,22.227h-32v-2.105a16,16,0,0,1,16-16h0a16,16,0,0,1,16,16Z" fill="#fff"/><path d="M220.781,300.012h-32a.75.75,0,0,1-.75-.75v-2.105a16.753,16.753,0,0,1,33.5,0v2.105A.75.75,0,0,1,220.781,300.012Zm-31.255-1.5h30.5v-1.355a15.253,15.253,0,0,0-30.5,0Zm15.253-20.727A10.282,10.282,0,1,1,215.062,267.5,10.294,10.294,0,0,1,204.779,277.785Zm0-19.064a8.782,8.782,0,1,0,8.783,8.782A8.793,8.793,0,0,0,204.779,258.721Z"/><path d="M181.257,285.8a.75.75,0,0,1-.75-.75V272.821a.75.75,0,0,1,1.5,0v12.233A.75.75,0,0,1,181.257,285.8Z" fill="#162020"/><path d="M187.373,279.688H175.142a.75.75,0,0,1,0-1.5h12.231a.75.75,0,0,1,0,1.5Z" fill="#162020"/></svg>